/* XPM */
static char *chest_o[] = {
/* columns rows colors chars-per-pixel */
"64 64 9 1 ",
"  c #21110D",
". c #342319",
"X c #242A3D",
"o c #503625",
"O c #755338",
"+ c #677598",
"@ c #BBBCBC",
"# c #B6BEC8",
"$ c white",
/* pixels */
"$$$$$$$$$$$$$$$$$$$$$$$$$$$$$$$$$$$$$$$$$$$$$$$$$$$$$$$$$$$$$$$$",
"$$$$$$$$$$$$$$$$$$$$$$$$$$$$$$$$$$$$$$$$$$$$$$$$$$$$$$$$$$$$$$$$",
"$$$$$$$$$$$$$$$$$$$$$$$$$$$$$$$$$$$$$$$$$$$$$$$$$$$$$$$$$$$$$$$$",
"$$$$$$$$$$$$$$$$$$$$$$$$$$$$$$$$$$$$$$$$$$$$$$$$$$$$$$$$$$$$$$$$",
"$$$$$$$$$$$$$$$$$$$$$$$$$$$$$$$$$$$$$$$$$$$$$$$$$$$$$$$$$$$$$$$$",
"$$$$$$$$$$$$$$$$$$$$$$$$$$$$$$$$$$$$$$$$$$$$$$$$$$$$$$$$$$$$$$$$",
"$$$$$$$$$$$$$$$$$$$$$$$$$$$$$$$$$$$$$$$$$$$$$$$$$$$$$$$$$$$$$$$$",
"$$$$$$$$$$$$$$$$$$$$$$$$$$$$$$$$$$$$$$$$$$$$$$$$$$$$$$$$$$$$$$$$",
"$$$$$$$$$$$$                                        $$$$$$$$$$$$",
"$$$$$$$$$$$$                                        $$$$$$$$$$$$",
"$$$$$$$$$$$$                                        $$$$$$$$$$$$",
"$$$$$$$$$$$$                                        $$$$$$$$$$$$",
"$$$$$$$$    ########OOOOOOOOOOOOOOOOOOOOOOOO########    $$$$$$$$",
"$$$$$$$$    ########OOOOOOOOOOOOOOOOOOOOOOOO########    $$$$$$$$",
"$$$$$$$$    ########OOOOOOOOOOOOOOOOOOOOOOOO########    $$$$$$$$",
"$$$$$$$$    ########OOOOOOOOOOOOOOOOOOOOOOOO########    $$$$$$$$",
"$$$$    OOOO                                        OOOO    $$$$",
"$$$$    OOOO                                        OOOO    $$$$",
"$$$$    OOOO                                        OOOO    $$$$",
"$$$$    OOOO                                        OOOO    $$$$",
"$$$$    OOOO                                        OOOO    $$$$",
"$$$$    OOOO                                        OOOO    $$$$",
"$$$$    OOOO                                        OOOO    $$$$",
"$$$$    OOOO                                        OOOO    $$$$",
"$$$$    OOOO                                        OOOO    $$$$",
"$$$$    OOOO                                        OOOO    $$$$",
"$$$$    OOOO                                        OOOO    $$$$",
"$$$$    OOOO                                        OOOO    $$$$",
"$$$$    oooo########OOOOOOOOOOOOOOOOOOOOOOOO########oooo    $$$$",
"$$$$    oooo########OOOOOOOOOOOOOOOOOOOOOOOO########oooo    $$$$",
"$$$$    oooo########OOOOOOOOOOOOOOOOOOOOOOOO########oooo    $$$$",
"$$$$    oooo########OOOOOOOOOOOOOOOOOOOOOOOO########oooo    $$$$",
"$$$$    ....++++++++oooo++++XXXXXXXX++++oooo++++++++....    $$$$",
"$$$$    ....++++++++oooo++++XXXXXXXX++++oooo++++++++....    $$$$",
"$$$$    ....++++++++oooo++++XXXXXXXX++++oooo++++++++....    $$$$",
"$$$$    ....++++++++oooo++++XXXXXXXX++++oooo++++++++....    $$$$",
"$$$$    ....++++++++oooo++++XXXXXXXX++++oooo++++++++....    $$$$",
"$$$$    ....++++++++oooo++++XXXXXXXX++++oooo++++++++....    $$$$",
"$$$$    ....++++++++oooo++++XXXXXXXX++++oooo++++++++....    $$$$",
"$$$$    ....++++++++oooo++++XXXXXXXX++++oooo++++++++....    $$$$",
"@@@@    ....++++++++oooo++++XXXXXXXX++++oooo++++++++....    @@@@",
"@@@@    ....++++++++oooo++++XXXXXXXX++++oooo++++++++....    @@@@",
"@@@@    ....++++++++oooo++++XXXXXXXX++++oooo++++++++....    @@@@",
"@@@@    ....++++++++oooo++++XXXXXXXX++++oooo++++++++....    @@@@",
"@@@@    ....++++++++oooo++++++++++++++++oooo++++++++....    @@@@",
"@@@@    ....++++++++oooo++++++++++++++++oooo++++++++....    @@@@",
"@@@@    ....++++++++oooo++++++++++++++++oooo++++++++....    @@@@",
"@@@@    ....++++++++oooo++++++++++++++++oooo++++++++....    @@@@",
"@@@@    ....++++++++oooooooooooooooooooooooo++++++++....    @@@@",
"@@@@    ....++++++++oooooooooooooooooooooooo++++++++....    @@@@",
"@@@@    ....++++++++oooooooooooooooooooooooo++++++++....    @@@@",
"@@@@    ....++++++++oooooooooooooooooooooooo++++++++....    @@@@",
"@@@@@@@@    ++++++++oooooooooooooooooooooooo++++++++    @@@@@@@@",
"@@@@@@@@    ++++++++oooooooooooooooooooooooo++++++++    @@@@@@@@",
"@@@@@@@@    ++++++++oooooooooooooooooooooooo++++++++    @@@@@@@@",
"@@@@@@@@    ++++++++oooooooooooooooooooooooo++++++++    @@@@@@@@",
"$$$$@@@@@@@@@@@@@@@@@@@@@@@@@@@@@@@@@@@@@@@@@@@@@@@@@@@@@@@@$$$$",
"$$$$@@@@@@@@@@@@@@@@@@@@@@@@@@@@@@@@@@@@@@@@@@@@@@@@@@@@@@@@$$$$",
"$$$$@@@@@@@@@@@@@@@@@@@@@@@@@@@@@@@@@@@@@@@@@@@@@@@@@@@@@@@@$$$$",
"$$$$@@@@@@@@@@@@@@@@@@@@@@@@@@@@@@@@@@@@@@@@@@@@@@@@@@@@@@@@$$$$",
"$$$$$$$$$$$$@@@@@@@@@@@@@@@@@@@@@@@@@@@@@@@@@@@@@@@@$$$$$$$$$$$$",
"$$$$$$$$$$$$@@@@@@@@@@@@@@@@@@@@@@@@@@@@@@@@@@@@@@@@$$$$$$$$$$$$",
"$$$$$$$$$$$$@@@@@@@@@@@@@@@@@@@@@@@@@@@@@@@@@@@@@@@@$$$$$$$$$$$$",
"$$$$$$$$$$$$@@@@@@@@@@@@@@@@@@@@@@@@@@@@@@@@@@@@@@@@$$$$$$$$$$$$"
};
