/* XPM */
static char *chest_c[] = {
/* columns rows colors chars-per-pixel */
"64 64 10 1 ",
"  c #21110D",
". c #342319",
"X c #242A3D",
"o c #503625",
"O c #755338",
"+ c #414B66",
"@ c #677598",
"# c #BBBCBC",
"$ c #B6BEC8",
"% c white",
/* pixels */
"%%%%%%%%%%%%%%%%%%%%%%%%%%%%%%%%%%%%%%%%%%%%%%%%%%%%%%%%%%%%%%%%",
"%%%%%%%%%%%%%%%%%%%%%%%%%%%%%%%%%%%%%%%%%%%%%%%%%%%%%%%%%%%%%%%%",
"%%%%%%%%%%%%%%%%%%%%%%%%%%%%%%%%%%%%%%%%%%%%%%%%%%%%%%%%%%%%%%%%",
"%%%%%%%%%%%%%%%%%%%%%%%%%%%%%%%%%%%%%%%%%%%%%%%%%%%%%%%%%%%%%%%%",
"%%%%%%%%                                                %%%%%%%%",
"%%%%%%%%                                                %%%%%%%%",
"%%%%%%%%                                                %%%%%%%%",
"%%%%%%%%                                                %%%%%%%%",
"%%%%    oooo@@@@@@@@oooooooooooooooooooooooo@@@@@@@@oooo    %%%%",
"%%%%    oooo@@@@@@@@oooooooooooooooooooooooo@@@@@@@@oooo    %%%%",
"%%%%    oooo@@@@@@@@oooooooooooooooooooooooo@@@@@@@@oooo    %%%%",
"%%%%    oooo@@@@@@@@oooooooooooooooooooooooo@@@@@@@@oooo    %%%%",
"%%%%    OOOO$$$$$$$$OOOOOOOOOOOOOOOOOOOOOOOO$$$$$$$$OOOO    %%%%",
"%%%%    OOOO$$$$$$$$OOOOOOOOOOOOOOOOOOOOOOOO$$$$$$$$OOOO    %%%%",
"%%%%    OOOO$$$$$$$$OOOOOOOOOOOOOOOOOOOOOOOO$$$$$$$$OOOO    %%%%",
"%%%%    OOOO$$$$$$$$OOOOOOOOOOOOOOOOOOOOOOOO$$$$$$$$OOOO    %%%%",
"%%%%    OOOO$$$$$$$$OOOOOOOOOOOOOOOOOOOOOOOO$$$$$$$$OOOO    %%%%",
"%%%%    OOOO$$$$$$$$OOOOOOOOOOOOOOOOOOOOOOOO$$$$$$$$OOOO    %%%%",
"%%%%    OOOO$$$$$$$$OOOOOOOOOOOOOOOOOOOOOOOO$$$$$$$$OOOO    %%%%",
"%%%%    OOOO$$$$$$$$OOOOOOOOOOOOOOOOOOOOOOOO$$$$$$$$OOOO    %%%%",
"%%%%    OOOO$$$$$$$$OOOOOOOOOOOOOOOOOOOOOOOO$$$$$$$$OOOO    %%%%",
"%%%%    OOOO$$$$$$$$OOOOOOOOOOOOOOOOOOOOOOOO$$$$$$$$OOOO    %%%%",
"%%%%    OOOO$$$$$$$$OOOOOOOOOOOOOOOOOOOOOOOO$$$$$$$$OOOO    %%%%",
"%%%%    OOOO$$$$$$$$OOOOOOOOOOOOOOOOOOOOOOOO$$$$$$$$OOOO    %%%%",
"%%%%    OOOO$$$$$$$$OOOOOOOOOOOOOOOOOOOOOOOO$$$$$$$$OOOO    %%%%",
"%%%%    OOOO$$$$$$$$OOOOOOOOOOOOOOOOOOOOOOOO$$$$$$$$OOOO    %%%%",
"%%%%    OOOO$$$$$$$$OOOOOOOOOOOOOOOOOOOOOOOO$$$$$$$$OOOO    %%%%",
"%%%%    OOOO$$$$$$$$OOOOOOOOOOOOOOOOOOOOOOOO$$$$$$$$OOOO    %%%%",
"%%%%    oooo@@@@@@@@oooooooooooooooooooooooo@@@@@@@@oooo    %%%%",
"%%%%    oooo@@@@@@@@oooooooooooooooooooooooo@@@@@@@@oooo    %%%%",
"%%%%    oooo@@@@@@@@oooooooooooooooooooooooo@@@@@@@@oooo    %%%%",
"%%%%    oooo@@@@@@@@oooooooooooooooooooooooo@@@@@@@@oooo    %%%%",
"%%%%    @@@@@@@@@@@@@@@@$$$$$$$$$$$$$$$$@@@@@@@@@@@@@@@@    %%%%",
"%%%%    @@@@@@@@@@@@@@@@$$$$$$$$$$$$$$$$@@@@@@@@@@@@@@@@    %%%%",
"%%%%    @@@@@@@@@@@@@@@@$$$$$$$$$$$$$$$$@@@@@@@@@@@@@@@@    %%%%",
"%%%%    @@@@@@@@@@@@@@@@$$$$$$$$$$$$$$$$@@@@@@@@@@@@@@@@    %%%%",
"%%%%    ....++++++++....++++XXXXXXXX++++....++++++++....    %%%%",
"%%%%    ....++++++++....++++XXXXXXXX++++....++++++++....    %%%%",
"%%%%    ....++++++++....++++XXXXXXXX++++....++++++++....    %%%%",
"%%%%    ....++++++++....++++XXXXXXXX++++....++++++++....    %%%%",
"####    ....@@@@@@@@oooo@@@@XXXXXXXX@@@@oooo@@@@@@@@....    ####",
"####    ....@@@@@@@@oooo@@@@XXXXXXXX@@@@oooo@@@@@@@@....    ####",
"####    ....@@@@@@@@oooo@@@@XXXXXXXX@@@@oooo@@@@@@@@....    ####",
"####    ....@@@@@@@@oooo@@@@XXXXXXXX@@@@oooo@@@@@@@@....    ####",
"####    ....@@@@@@@@oooo@@@@@@@@@@@@@@@@oooo@@@@@@@@....    ####",
"####    ....@@@@@@@@oooo@@@@@@@@@@@@@@@@oooo@@@@@@@@....    ####",
"####    ....@@@@@@@@oooo@@@@@@@@@@@@@@@@oooo@@@@@@@@....    ####",
"####    ....@@@@@@@@oooo@@@@@@@@@@@@@@@@oooo@@@@@@@@....    ####",
"####    ....@@@@@@@@oooooooooooooooooooooooo@@@@@@@@....    ####",
"####    ....@@@@@@@@oooooooooooooooooooooooo@@@@@@@@....    ####",
"####    ....@@@@@@@@oooooooooooooooooooooooo@@@@@@@@....    ####",
"####    ....@@@@@@@@oooooooooooooooooooooooo@@@@@@@@....    ####",
"########    @@@@@@@@oooooooooooooooooooooooo@@@@@@@@    ########",
"########    @@@@@@@@oooooooooooooooooooooooo@@@@@@@@    ########",
"########    @@@@@@@@oooooooooooooooooooooooo@@@@@@@@    ########",
"########    @@@@@@@@oooooooooooooooooooooooo@@@@@@@@    ########",
"%%%%########################################################%%%%",
"%%%%########################################################%%%%",
"%%%%########################################################%%%%",
"%%%%########################################################%%%%",
"%%%%%%%%%%%%########################################%%%%%%%%%%%%",
"%%%%%%%%%%%%########################################%%%%%%%%%%%%",
"%%%%%%%%%%%%########################################%%%%%%%%%%%%",
"%%%%%%%%%%%%########################################%%%%%%%%%%%%"
};
