/* XPM */
static char *cfb82cb243d84c68b744a6e681111618[] = {
/* columns rows colors chars-per-pixel */
"64 64 36 1 ",
"  c #21110D",
". c #231611",
"X c #271C16",
"o c #2A211A",
"O c #2D251E",
"+ c #342319",
"@ c #302921",
"# c #242A3D",
"$ c #503625",
"% c #755338",
"& c #414B66",
"* c #5F7160",
"= c #778570",
"- c #8D977F",
"; c #677598",
": c #8E9880",
"> c #909A83",
", c #929B85",
"< c #929C86",
"1 c #949D87",
"2 c #949D88",
"3 c #97A08B",
"4 c #98A18D",
"5 c #9BA390",
"6 c #9DA592",
"7 c #9FA795",
"8 c #A1A897",
"9 c #A5AC9C",
"0 c #AAB1A2",
"q c #ADB3A4",
"w c #B1B7A9",
"e c #B6B8B5",
"r c #B7B9B8",
"t c #B8B9B8",
"y c #BBBCBC",
"u c #B6BEC8",
/* pixels */
"****************************************************************",
"*----=----------------------------------------------------=----*",
"*-----=--------------------------------------------------=-----*",
"*------=************************************************=------*",
"*------*================================================*------*",
"*=-----**************************************************-----=*",
"*-=---**===*==*==================================*==*===**---=-*",
"*--=***====*==*==================================*==*====***=--*",
"*--*=*===**===*=**============================**=*===**===*=*--*",
"*--*=*==*=====*=-*============================*-=*=====*==*=*--*",
"*--*=*==*====***-=**========********========**=-***====*==*=*--*",
"*--*=***====*===-=--*======*========*======*--=-===*====***=*--*",
"*--*=*=====*==**==---*====*==******==*====*---==**==*=====*=*--*",
"*--*=*====*==*----=--*====*=*------*=*====*--=----*==*====*=*--*",
"*--*=******=*------===**==*=*------*=*==**===------*=******=*--*",
"*--*=*====*=*------=---*==*=*--**--*=*==*---=------*=*====*=*--*",
"*--*=*==*---=-------444444444444444444444444:------=---*==*=*--*",
"*--*=*==**===------>                        7------===**==*=*--*",
"*--*=*====*--=----47                        04----=--*====*=*--*",
"*--*=*====*---==-:  $$;;;;$$$$$$$$$$$$;;;;$$ @--==---*====*=*--*",
"*--*=*=====*--=--:  $$;;;;$$$$$$$$$$$$;;;;$$ O---=--*=====*=*--*",
"*--*=*======**=--:  %%uuuu%%%%%%%%%%%%uuuu%% o---=**======*=*--*",
"*--*=*========*-->  %%uuuu%%%%%%%%%%%%uuuu%% X---*========*=*--*",
"*--*=*========**->  %%uuuu%%%%%%%%%%%%uuuu%% .--**========*=*--*",
"*--*=*==========-,  %%uuuu%%%%%%%%%%%%uuuu%%  :-==========*=*--*",
"*--*=*==========-,  %%uuuu%%%%%%%%%%%%uuuu%%  :-==========*=*--*",
"*--*=*======****-<  %%uuuu%%%%%%%%%%%%uuuu%%  ,-****======*=*--*",
"*--*=*=====*====-<  %%uuuu%%%%%%%%%%%%uuuu%%  <-====*=====*=*--*",
"*--*=*====*==***-1  %%uuuu%%%%%%%%%%%%uuuu%%  2-***==*====*=*--*",
"*--*=*====*=*----2  $$;;;;$$$$$$$$$$$$;;;;$$  3----*=*====*=*--*",
"*--*=*====*=*----2  $$;;;;$$$$$$$$$$$$;;;;$$  4----*=*====*=*--*",
"*--*=*====*=*--*-2  ;;;;;;;;uuuuuuuu;;;;;;;;  5-*--*=*====*=*--*",
"*--*=*====*=*--*-2  ;;;;;;;;uuuuuuuu;;;;;;;;  6-*--*=*====*=*--*",
"*--*=*====*=*----3  ++&&&&++&&####&&++&&&&++  7----*=*====*=*--*",
"*--*=*====*=*----8  ++&&&&++&&####&&++&&&&++  q,---*=*====*=*--*",
"*--*=*====*==***yy  ++;;;;$$;;####;;$$;;;;++  ye***==*====*=*--*",
"*--*=*=====*====yy  ++;;;;$$;;####;;$$;;;;++  ye====*=====*=*--*",
"*--*=*======****yy  ++;;;;$$;;;;;;;;$$;;;;++  ye****======*=*--*",
"*--*=*==========yy  ++;;;;$$;;;;;;;;$$;;;;++  ye==========*=*--*",
"*--*=*==========yy  ++;;;;$$$$$$$$$$$$;;;;++  yr==========*=*--*",
"*--*=*========**yy  ++;;;;$$$$$$$$$$$$;;;;++  yt**========*=*--*",
"*--*=*========*-yyyy  ;;;;$$$$$$$$$$$$;;;;  yyyt-*========*=*--*",
"*--*=*======**=-ttyy  ;;;;$$$$$$$$$$$$;;;;  yyyt-=**======*=*--*",
"*--*=*=====*--=--9yyyyyyyyyyyyyyyyyyyyyyyyyyyt4--=--*=====*=*--*",
"*--*=*====*---==-:tyyyyyyyyyyyyyyyyyyyyyyyyyyy9-==---*====*=*--*",
"*--*=*====*--=------4wyyyyyyyyyyyyyyyyyyyy44------=--*====*=*--*",
"*--*=*==**===--------1eeeeeeeeeeeeeeeeeeee---------===**==*=*--*",
"*--*=*==*---=--------------------------------------=---*==*=*--*",
"*--*=*====*=*------=---*==*=*--**--*=*==*---=------=---*==*=*--*",
"*--*=******=*------===**==*=*------*=*==**===------*=******=*--*",
"*--*=*====*==*----=--*====*=*------*=*====*--=----*==*====*=*--*",
"*--*=*=====*==**==---*====*==******==*====*---==**==*=====*=*--*",
"*--*=***====*===-=--*======*========*======*--=-===*====***=*--*",
"*--*=*==*====***-=**========********========**=-***====*==*=*--*",
"*--*=*==*=====*=-*============================*-=*=====*==*=*--*",
"*--*=*===**===*=**============================**=*===**===*=*--*",
"*--=***====*==*==================================*==*====***=--*",
"*-=---**===*==*==================================*==*===**---=-*",
"*=-----**************************************************-----=*",
"*------*================================================*------*",
"*------=************************************************=------*",
"*-----=--------------------------------------------------=-----*",
"*----=----------------------------------------------------=----*",
"****************************************************************"
};
