/* XPM */
static char *door_c[] = {
/* columns rows colors chars-per-pixel */
"64 64 10 1 ",
"  c #141B1B",
". c #46402E",
"X c #5F7160",
"o c #E66A3A",
"O c #965340",
"+ c #8D977F",
"@ c #FFAD5D",
"# c #E7C4B4",
"$ c #B8DCE5",
"% c #F2EAF1",
/* pixels */
"++++XXXX++++XXXXXXXXXXXX....XXXXXXXXXXXXXXXXXXXX....++++++++++++",
"++++XXXX++++XXXXXXXXXXXX....XXXXXXXXXXXXXXXXXXXX....++++++++++++",
"++++XXXX++++XXXXXXXXXXXX....XXXXXXXXXXXXXXXXXXXX....++++++++++++",
"++++XXXX++++XXXXXXXXXXXX....XXXXXXXXXXXXXXXXXXXX....++++++++++++",
"++++....XXXXXXXXXXXXXXXX....XXXXXXXXXXXXXXXXXXXX....XXXX++++++++",
"++++....XXXXXXXXXXXXXXXX....XXXXXXXXXXXXXXXXXXXX....XXXX++++++++",
"++++....XXXXXXXXXXXXXXXX....XXXXXXXXXXXXXXXXXXXX....XXXX++++++++",
"++++....XXXXXXXXXXXXXXXX....XXXXXXXXXXXXXXXXXXXX....XXXX++++++++",
"++++XXXX........                            ....XXXXXXXXXXXX++++",
"++++XXXX........                            ....XXXXXXXXXXXX++++",
"++++XXXX........                            ....XXXXXXXXXXXX++++",
"++++XXXX........                            ....XXXXXXXXXXXX++++",
"XXXXXXXXXXXX                                        XXXXXXXX++++",
"XXXXXXXXXXXX                                        XXXXXXXX++++",
"XXXXXXXXXXXX                                        XXXXXXXX++++",
"XXXXXXXXXXXX                                        XXXXXXXX++++",
"XXXXXXXXXXXX                @@@@@@@@@@@@@@@@@@@@@@@@@@@@XXXXXXXX",
"XXXXXXXXXXXX                @@@@@@@@@@@@@@@@@@@@@@@@@@@@XXXXXXXX",
"XXXXXXXXXXXX                @@@@@@@@@@@@@@@@@@@@@@@@@@@@XXXXXXXX",
"XXXXXXXXXXXX                @@@@@@@@@@@@@@@@@@@@@@@@@@@@XXXXXXXX",
"XXXXXXXX@@@@@@@@@@@@@@@@@@@@oooooooooooooooooooo####ooooXXXXXXXX",
"XXXXXXXX@@@@@@@@@@@@@@@@@@@@oooooooooooooooooooo####ooooXXXXXXXX",
"XXXXXXXX@@@@@@@@@@@@@@@@@@@@oooooooooooooooooooo####ooooXXXXXXXX",
"XXXXXXXX@@@@@@@@@@@@@@@@@@@@oooooooooooooooooooo####ooooXXXXXXXX",
"XXXXXXXXoooo####ooooooooooooooooooooooooooooOOOOOOOOOOOOXXXXXXXX",
"XXXXXXXXoooo####ooooooooooooooooooooooooooooOOOOOOOOOOOOXXXXXXXX",
"XXXXXXXXoooo####ooooooooooooooooooooooooooooOOOOOOOOOOOOXXXXXXXX",
"XXXXXXXXoooo####ooooooooooooooooooooooooooooOOOOOOOOOOOOXXXXXXXX",
"XXXXXXXXoooooooooooooooooooooooo                        XXXXXXXX",
"XXXXXXXXoooooooooooooooooooooooo                        XXXXXXXX",
"XXXXXXXXoooooooooooooooooooooooo                        XXXXXXXX",
"XXXXXXXXoooooooooooooooooooooooo                        XXXXXXXX",
"XXXXXXXX                        OOOOOOOOOOOOOOOO@@@@@@@@XXXXXXXX",
"XXXXXXXX                        OOOOOOOOOOOOOOOO@@@@@@@@XXXXXXXX",
"XXXXXXXX                        OOOOOOOOOOOOOOOO@@@@@@@@XXXXXXXX",
"XXXXXXXX                        OOOOOOOOOOOOOOOO@@@@@@@@XXXXXXXX",
"XXXXXXXXOOOOOOOOOOOOOOOOooooooooooooooooooooooooooooooooXXXXXXXX",
"XXXXXXXXOOOOOOOOOOOOOOOOooooooooooooooooooooooooooooooooXXXXXXXX",
"XXXXXXXXOOOOOOOOOOOOOOOOooooooooooooooooooooooooooooooooXXXXXXXX",
"XXXXXXXXOOOOOOOOOOOOOOOOooooooooooooooooooooooooooooooooXXXXXXXX",
"XXXXXXXXOOOOOOOOOOOOOOOOooooooooOOOOOOOOOOOOoooo####ooooXXXXXXXX",
"XXXXXXXXOOOOOOOOOOOOOOOOooooooooOOOOOOOOOOOOoooo####ooooXXXXXXXX",
"XXXXXXXXOOOOOOOOOOOOOOOOooooooooOOOOOOOOOOOOoooo####ooooXXXXXXXX",
"XXXXXXXXOOOOOOOOOOOOOOOOooooooooOOOOOOOOOOOOoooo####ooooXXXXXXXX",
"XXXXXXXX                ooooooooooooooooooooOOOOOOOOOOOOXXXXXXXX",
"XXXXXXXX                ooooooooooooooooooooOOOOOOOOOOOOXXXXXXXX",
"XXXXXXXX                ooooooooooooooooooooOOOOOOOOOOOOXXXXXXXX",
"XXXXXXXX                ooooooooooooooooooooOOOOOOOOOOOOXXXXXXXX",
"XXXX........    ++++$$$$                oooooooooooooooo....XXXX",
"XXXX........    ++++$$$$                oooooooooooooooo....XXXX",
"XXXX........    ++++$$$$                oooooooooooooooo....XXXX",
"XXXX........    ++++$$$$                oooooooooooooooo....XXXX",
"................$$$$$$$$$$$$$$$$$$$$$$$$                ........",
"................$$$$$$$$$$$$$$$$$$$$$$$$                ........",
"................$$$$$$$$$$$$$$$$$$$$$$$$                ........",
"................$$$$$$$$$$$$$$$$$$$$$$$$                ........",
"............$$$$$$$$%%%%%%%%%%%%%%%%%%%%%%%%$$$$$$$$............",
"............$$$$$$$$%%%%%%%%%%%%%%%%%%%%%%%%$$$$$$$$............",
"............$$$$$$$$%%%%%%%%%%%%%%%%%%%%%%%%$$$$$$$$............",
"............$$$$$$$$%%%%%%%%%%%%%%%%%%%%%%%%$$$$$$$$............",
"%%%%%%%%%%%%%%%%%%%%%%%%%%%%%%%%%%%%%%%%%%%%%%%%%%%%%%%%%%%%%%%%",
"%%%%%%%%%%%%%%%%%%%%%%%%%%%%%%%%%%%%%%%%%%%%%%%%%%%%%%%%%%%%%%%%",
"%%%%%%%%%%%%%%%%%%%%%%%%%%%%%%%%%%%%%%%%%%%%%%%%%%%%%%%%%%%%%%%%",
"%%%%%%%%%%%%%%%%%%%%%%%%%%%%%%%%%%%%%%%%%%%%%%%%%%%%%%%%%%%%%%%%"
};
