/* XPM */
static char *_98774e28b2446dcf0e7ef6ab081d07cbSP77sCgV1gj6MoH[] = {
/* columns rows colors chars-per-pixel */
"64 64 8 1 ",
"  c #141B1B",
". c #5F7160",
"X c #74A334",
"o c #56864C",
"O c #778570",
"+ c #ADBC3A",
"@ c #8D977F",
"# c #FFAD5D",
/* pixels */
"................................................................",
".@@@@O@@@@@@@@@@@@@@@@@@@@@@@@@@@@@@@@@@@@@@@@@@@@@@@@@@@@O@@@@.",
".@@@@@O@@@@@@@@@@@@@@@@@@@@@@@@@@@@@@@@@@@@@@@@@@@@@@@@@@O@@@@@.",
".@@@@@@O................................................O@@@@@@.",
".@@@@@@.OOOOOOOOOOOOOOOOOOOOOOOOOOOOOOOOOOOOOOOOOOOOOOOO.@@@@@@.",
".O@@@@@..................................................@@@@@O.",
".@O@@@..OOO.OO.OOOOOOOOOOOOOOOOOOOOOOOOOOOOOOOOOO.OO.OOO..@@@O@.",
".@@O...OOOO.OO.OOOOOOOOOOOOOOOOOOOOOOOOOOOOOOOOOO.OO.OOOO...O@@.",
".@@.O.OOO..OOO.O..OOOOOOOOOOOOOOOOOOOOOOOOOOOO..O.OOO..OOO.O.@@.",
".@@.O.OO.OOOOO.O  OOOOOOOOOOOOOOOOOOOOOOOOOOOO.@O.OOOOO.OO.O.@@.",
".@@.O.OO.OOOO.  ++ .OOOOOOOO........OOOOOOOO..O@..    O.OO.O.@@.",
".@@.O...OOOO. ++++X .OOOOOO.OOOOOOOO.OOOOOO.@@O@O ++++ O...O.@@.",
".@@.O.OOOOO. ++ ++XX .OOOO.OO......OO.OOOO.@@@OO +++++X OO.O.@@.",
".@@.O.OOOO. ++ ++XXX .OOOO.O.@@@@@@.O.OOOO.@@O@ ++++++X OO.O.@@.",
".@@.O..... +++++XXXX O..OO.O.@@@@@@.O.OO..OOO@@ +++++XX ...O.@@.",
".@@.O.OOOO   + XXXXX @@.OO.O.@@..@@.O.OO.@@@O@ +++++XXX OO.O.@@.",
".@@.O.OO.@ ++ XXXXXX   @@@@@@@@@@@@@@@@@@@@@@@ +++XXXXX OO.O.@@.",
".@@.O.OO..O  oooXXX ooo @@@@@@@@@@@@@@@@@@@@@@@ XXXXXX .OO.O.@@.",
".@@.O.OOOO.@@ ++XXXXoooo @@@@@@@@@@@@@@@@@@@@@@@   XXX OOO.O.@@.",
".@@.O.OOOO.@ ###+XXXXo o OOOOOOOOOOOOOOO@@@@@@@@ oXXXXX OO.O.@@.",
".@@.O.OOOOO. ++++XXXX  o @@@@@@@@@@@@@@@OO@@@@@ oXXXXXXX O.O.@@.",
".@@.O.OOOOOO. ##XXXX O@ @@@@@@@@@@@@@@@@@@O@@@@ oXXXX XX O.O.@@.",
".@@.O.OOOOOOOO.@@@@@O@@@@@@@@@@@@@@@@@@@@@@O@@@@ oXX XX OO.O.@@.",
".@@.O.OOOOOOOO..@@@@O@@@@@@..........@@@@@@O@@@@..OO X OOO.O.@@.",
".@@.O.OOOOOOOOOO@@@O@@@@@..OOOOOOOOOO..@@@@@O@@@OOOOO OOOO.O.@@.",
".@@.O.OOOOOOOOOO@@@O@@@@.OOOOOOOOOOOOOO.@@@@O@@@OOOOOOOOOO.O.@@.",
".@@.O.OOOOOO....@@@O@@@@.OOOOOOOOOOOOOO.@@@@O@@@....OOOOOO.O.@@.",
".@@.O.OOOOO.OOOO@@@O@@@.OOOO........OOOO.@@@O@@@OOOO.OOOOO.O.@@.",
".@@.O.OOOO.OO...@@@O@@@.OOO.OOOOOOOO.OOO.@@@O@@@...OO.OOOO.O.@@.",
".@@.O.OOOO.O.@@@@@@O@@@.OOO.OO....OO.OOO.@@@O@@@@@@.O.OOOO.O.@@.",
".@@.O.OOOO.O.@@@@@@O@@@.OOO.O.@@@@.O.OOO.@@@O@@@@@@.O.OOOO.O.@@.",
".@@.O.OOOO.O.@@.@@@O@@@.OOO.O.@@@@.O.OOO.@@@O@@@.@@.O.OOOO.O.@@.",
".@@.O.OOOO.O.@@.@@@O@@@.OOO.O.@@@@.O.OOO.@@@O@@@.@@.O.OOOO.O.@@.",
".@@.O.OOOO.O.@@@@@    @.OOO.O.@@@@.O.OOO.@@@O@@@@@@.O.OOOO.O.@@.",
".@@.O.OOOO.O.@@@@ ++++ .OOO.OO....OO.OOO.@  O@@@@@@.O.OOOO.O.@@.",
".@@.O.OOOO.OO... +++++X OOO.OOOOOOOO.OOO. ++  @@...OO.OOOO.O.@@.",
".@@.O.OOOOO.OOO +++++ X OO O........OOOO X++++ @OOOO.OOOOO.O.@@.",
".@@.O.OOOOOO... ++++ +X . o OOOOOOOOOOO XX++ ++ ....OOOOOO.O.@@.",
".@@.O.OOOOOOOO ++++++XX  oo OOOOOOOOOOO XXX++ ++ OOOOOOOOO.O.@@.",
".@@.O.OOOOOOOO +    + X ooo OOOOOOOOO.. XXXX+++++ OOOOOOOO.O.@@.",
".@@.O.OOOOOOOO. ++++ XX Xo ..........@@ XXXXX +   OOOOOOOO.O.@@.",
".@@.O.OOOOOOOO.@   XXX XXo @@@@@@@@@@   XXXXXX ++ OOOOOOOO.O.@@.",
".@@.O.OOOOOO..O@ ++++XXXX @@@@@@@@@@ ooo XXXooo  O..OOOOOO.O.@@.",
".@@.O.OOOOO.@@O #####+XXX @@@@@@@@@ ooooXXXX++ @@O@@.OOOOO.O.@@.",
".@@.O.OOOO.@@@O ++++++XX OOOOOOOOOO o oXXXX+### OO@@@.OOOO.O.@@.",
".@@.O.OOOO.@@O@@ ####XX @@@@@@@@@@@ o  XXXX++++ @@O@@.OOOO.O.@@.",
".@@.O.OO..OOO@@@@@@@@@@@@@@@@@@@@@@@ @@ XXXX## @@@@OOO..OO.O.@@.",
".@@.O.OO.@@@O@@@@@@@@@@@@@@@@@@@@@@@@@@@@@@@@@@@@@@O@@@.OO.O.@@.",
".@@.O.OOOO.O.@@@@@@O@@@.OO.O.@@..@@.O.OO.@@@O@@@@@@O@@@.OO.O.@@.",
".@@.O......O.@@@@@@OOO..OO.O.@@@@@@.O.OO..OOO@@@@@@.  .....O.@@.",
".@@.O.OOOO.OO.@@@@O@@.OOOO.O.@@@@@@.O.OOOO.@@O@@@@  ++ OOO.O.@@.",
".@@.O.OOOOO.OO..OO@@@.OOOO.OO......OO.OOOO.@@@OO. ++++X OO.O.@@.",
".@@.O...OOOO.OOO@O@@.OOOOOO.OOOOOOOO.OOOOOO.@@O@ ++ ++XX ..O.@@.",
".@@.O.OO.OOOO...@O..OOOOOOOO........OOOOOOOO..O ++ ++XXX O.O.@@.",
".@@.O.OO.OOOOO.O@.OOOOOOOOOOOOOOOOOOOOOOOOOOOO +++++XXXX O.O.@@.",
".@@.O.OOO..OOO.O..OOOOOOOOOOOOOOOOOOOOOOOOOOOO   + XXXXX O.O.@@.",
".@@O...OOOO.OO.OOOOOOOOOOOOOOOOOOOOOOOOOOOOOOO ++ XXXXXX   .O@@.",
".@O@@@..OOO.OO.OOOOOOOOOOOOOOOOOOOOOOOOOOOOOOOO  oooXXX ooo  O@.",
".O@@@@@.......................................... ++XXXXooooo O.",
".@@@@@@.OOOOOOOOOOOOOOOOOOOOOOOOOOOOOOOOOOOOOOOO ###+XXXXo   @@.",
".@@@@@@O........................................ ++++XXXX @@@@@.",
".@@@@@O@@@@@@@@@@@@@@@@@@@@@@@@@@@@@@@@@@@@@@@@@@ ##XXXX O@@@@@.",
".@@@@O@@@@@@@@@@@@@@@@@@@@@@@@@@@@@@@@@@@@@@@@@@@@@@@@@@@@O@@@@.",
"................................................................"
};
