/* XPM */
static char *_97bb9137fb14938c1abeeb5b690c909w3HdXlJ66dh4HjDs[] = {
/* columns rows colors chars-per-pixel */
"64 64 8 1 ",
"  c #141B1B",
". c #5F7160",
"X c #74A334",
"o c #56864C",
"O c #778570",
"+ c #ADBC3A",
"@ c #8D977F",
"# c #FFAD5D",
/* pixels */
"................................................................",
".@@@@O@@@@@@@@@@@@@@@@@@@@@@@@@@@@@@@@@@@@@@@@@@@@@@@@@@@@O@@@@.",
".@@@@@O@@@@@@@@@@@@@@@@@@@@@@@@@@@@@@@@@@@@@@@@@@@@@@@@@@O@@@@@.",
".@@@@@@O................................................O@@@@@@.",
".@@@@@@.OOOOOOOOOOOOOOOOOOOOOOOOOOOOOOOOOOOOOOOOOOOOOOOO.@@@@@@.",
".O@@@@@..................................................@@@@@O.",
".@O@@@..OOO.OO.OOOOOOOOOOOOOOOOOOOOOOOOOOOOOOOOOO.OO.OOO..@@@O@.",
".@@O...OOOO.OO.OOOOOOOOOOOOOOOOOOOOOOOOOOOOOOOOOO.OO.OOOO...O@@.",
".@@.O.OOO..OOO.O..OOOOOOOOOOOOOOOOOOOOOOOOOOOO..O.OOO..OOO.O.@@.",
".@@.O.OO.OOOOO.  .OOOOOOOOOOOOOOOOOOOOOOOOOOOO.@O.OOOOO.OO.O.@@.",
".@@.O.OO.OOOO  ++ ..OOOOOOOO........OOOOOOOO..O@.    OO.OO.O.@@.",
".@@.O...OOOO ++++X @.OOOOOO.OOOOOOOO.OOOOOO.@@O@ ++++ OO...O.@@.",
".@@.O.OOOOO ++ ++XX @.OOOO.OO......OO.OOOO.@@@O +++++X OOO.O.@@.",
".@@.O.OOOO ++ ++XXX @.OOOO.O.@@@@@@.O.OOOO.@@O ++++++X OOO.O.@@.",
".@@.O.... +++++XXXX OO..OO.O.@@@@@@.O.OO..OOO@ +++++XX ....O.@@.",
".@@.O.OOO   + XXXXX @@@.OO.O.@@..@@.O.OO.@@@O +++++XXX OOO.O.@@.",
".@@.O.OO. ++ XXXXXX   @@@@@@@@@@@@@@@@@@@@@@@ +++XXXXX .OO.O.@@.",
".@@.O.OO..  oooXXX ooo  @@@@@@@@@@@@@@@@@@@@@@ XXXXXX ..OO.O.@@.",
".@@.O.OOOO.@ ++XXXXooooo @@@@@@@@@@@@@@@@@@@@@@   XXX OOOO.O.@@.",
".@@.O.OOOO. ###+XXXXo   OOOOOOOOOOOOOOOO@@@@@@@ oXXXXX OOO.O.@@.",
".@@.O.OOOOO ++++XXXX @OO@@@@@@@@@@@@@@@@OO@@@@ oXXXXXXX OO.O.@@.",
".@@.O.OOOOOO ##XXXX @O@@@@@@@@@@@@@@@@@@@@O@@@ oXXXXXXX OO.O.@@.",
".@@.O.OOOOOOOO.@@@@@O@@@@@@@@@@@@@@@@@@@@@@O@@@ oXXX XX OO.O.@@.",
".@@.O.OOOOOOOO..@@@@O@@@@@@..........@@@@@@O@@@@..OO X OOO.O.@@.",
".@@.O.OOOOOOOOOO@@@O@@@@@..OOOOOOOOOO..@@@@@O@@@OOOO X OOO.O.@@.",
".@@.O.OOOOOOOOOO@@@O@@@@.OOOOOOOOOOOOOO.@@@@O@@@OOOOO OOOO.O.@@.",
".@@.O.OOOOOO....@@@O@@@@.OOOOOOOOOOOOOO.@@@@O@@@....OOOOOO.O.@@.",
".@@.O.OOOOO.OOOO@@@O@@@.OOOO........OOOO.@@@O@@@OOOO.OOOOO.O.@@.",
".@@.O.OOOO.OO...@@@O@@@.OOO.OOOOOOOO.OOO.@@@O@@@...OO.OOOO.O.@@.",
".@@.O.OOOO.O.@@@@@@O@@@.OOO.OO....OO.OOO.@@@O@@@@@@.O.OOOO.O.@@.",
".@@.O.OOOO.O.@@@@@@O@@@.OOO.O.@@@@.O.OOO.@@@O@@@@@@.O.OOOO.O.@@.",
".@@.O.OOOO.O.@@.@@@O@@@.OOO.O.@@@@.O.OOO.@@@O@@@.@@.O.OOOO.O.@@.",
".@@.O.OOOO.O.@@.@@@    .OOO.O.@@@@.O.OOO.@@@O@@@.@@.O.OOOO.O.@@.",
".@@.O.OOOO.O.@@@@@ ++++ OOO.O.@@@@.O.OOO.@@@O@@@@@@.O.OOOO.O.@@.",
".@@.O.OOOO.O.@@@@ +++++X OO.OO....OO.OOO.@@@O@@@@@@.O.OOOO.O.@@.",
".@@.O.OOOO.OO... +++++ X OO.OOOOOOOO.OOO.@@@O@@@...OO.OOOO.O.@@.",
".@@.O.OOOOO.OOOO ++++ +X OOO........OOOO.@@@  @@OOOO.OOOOO.O.@@.",
".@@.O.OOOOOO... ++++++XX   OOOOOOOOOOOO.@@@ ++  ....OOOOOO.O.@@.",
".@@.O.OOOOOOOOO +    + X oo OOOOOOOOOOO.@@ X++++ OOOOOOOOO.O.@@.",
".@@.O.OOOOOOOOOO ++++ XX X o OOOOOOOO..@@ XX++ ++ OOOOOOOO.O.@@.",
".@@.O.OOOOOOOO..@   XXX XX o ........@@@@ XXX++ ++ OOOOOOO.O.@@.",
".@@.O.OOOOOOOO.@@ ++++XXXX  @@@@@@@@@@@@@ XXXX+++++ OOOOOO.O.@@.",
".@@.O.OOOOOO..O@ #####+XXX @@@@@@@@@@@@@@ XXXXX +   OOOOOO.O.@@.",
".@@.O.OOOOO.@@O@ ++++++XX @@@@@@@@@@@@@   XXXXXX ++ .OOOOO.O.@@.",
".@@.O.OOOO.@@@OO@ ####XX OOOOOOOOOOOO  ooo XXXooo  @@.OOOO.O.@@.",
".@@.O.OOOO.@@O@@@@@@@@@@@@@@@@@@@@@  oooooXXXX++ @O@@.OOOO.O.@@.",
".@@.O.OO..OOO@@@@@@@@@@@@@@@@@@@@@@@@   oXXXX+### @OOO..OO.O.@@.",
".@@.O.OO.@@@O@@@@@@@@@@@@@@@@@@@@@@@@@@@ XXXX++++ @O@@@.OO.O.@@.",
".@@.O.OOOO.O.@@@@@@O@@@.OO.O.@@..@@.O.OO. XXXX## @@O@@@.OO.O.@@.",
".@@.O......O.@@@@@@OOO..OO.O.@@@@@@.O.OO..OOO@@@@@@.O.  ...O.@@.",
".@@.O.OOOO.OO.@@@@O@@.OOOO.O.@@@@@@.O.OOOO.@@O@@@@.O  ++ O.O.@@.",
".@@.O.OOOOO.OO..OO@@@.OOOO.OO......OO.OOOO.@@@OO..O ++++X .O.@@.",
".@@.O...OOOO.OOO@O@@.OOOOOO.OOOOOOOO.OOOOOO.@@O@OO ++ ++XX O.@@.",
".@@.O.OO.OOOO...@O..OOOOOOOO........OOOOOOOO..O@. ++ ++XXX O.@@.",
".@@.O.OO.OOOOO.O@.OOOOOOOOOOOOOOOOOOOOOOOOOOOO.@ +++++XXXX O.@@.",
".@@.O.OOO..OOO.O..OOOOOOOOOOOOOOOOOOOOOOOOOOOO..   + XXXXX O.@@.",
".@@O...OOOO.OO.OOOOOOOOOOOOOOOOOOOOOOOOOOOOOOOOO ++ XXXXXX   @@.",
".@O@@@..OOO.OO.OOOOOOOOOOOOOOOOOOOOOOOOOOOOOOOOOO  oooXXX ooo @.",
".O@@@@@............................................ ++XXXXoooo .",
".@@@@@@.OOOOOOOOOOOOOOOOOOOOOOOOOOOOOOOOOOOOOOOOOO ###+XXXXo o .",
".@@@@@@O.......................................... ++++XXXX  o .",
".@@@@@O@@@@@@@@@@@@@@@@@@@@@@@@@@@@@@@@@@@@@@@@@@@@ ##XXXX @@ @.",
".@@@@O@@@@@@@@@@@@@@@@@@@@@@@@@@@@@@@@@@@@@@@@@@@@@@@@@@@@O@@@@.",
"................................................................"
};
