/* XPM */
static char *mechant[] = {
/* columns rows colors chars-per-pixel */
"64 64 144 2 ",
"   c #141B1B",
".  c #18201E",
"X  c #1C2322",
"o  c #212925",
"O  c #2D2D24",
"+  c #232B2A",
"@  c #2B342D",
"#  c #393629",
"$  c #3F3B2C",
"%  c #2D3832",
"&  c #333939",
"*  c #433E2D",
"=  c #443F30",
"-  c #46402E",
";  c #474330",
":  c #484432",
">  c #4A4836",
",  c #474F3E",
"<  c #4D4C39",
"1  c #534F3C",
"2  c #4E503D",
"3  c #54513E",
"4  c #3D4A40",
"5  c #2D697B",
"6  c #404646",
"7  c #434949",
"8  c #445043",
"9  c #4B5442",
"0  c #4E5946",
"q  c #465449",
"w  c #4C5A4E",
"e  c #505542",
"r  c #595744",
"t  c #535B47",
"y  c #535D4A",
"u  c #5D5A49",
"i  c #4E5454",
"p  c #4F5C53",
"a  c #555D50",
"s  c #535858",
"d  c #56634D",
"f  c #556557",
"g  c #596655",
"h  c #5A6955",
"j  c #5C6C5A",
"k  c #5E705F",
"l  c #62634E",
"z  c #646752",
"x  c #676954",
"c  c #6A6C57",
"v  c #636B5D",
"b  c #6C6E59",
"n  c #71745F",
"m  c #5D6361",
"M  c #5F7160",
"N  c #5A706E",
"B  c #626767",
"V  c #646C60",
"C  c #637462",
"Z  c #6C7564",
"A  c #697966",
"S  c #6A716E",
"D  c #6C7B68",
"F  c #757A64",
"G  c #757E6A",
"H  c #727676",
"J  c #767A7A",
"K  c #7B7F7F",
"L  c #74836E",
"P  c #7B826B",
"I  c #758576",
"U  c #7C8672",
"Y  c #7E8A75",
"T  c #818C76",
"R  c #838D79",
"E  c #87927B",
"W  c #8D977F",
"Q  c #326F81",
"!  c #367285",
"~  c #3C798C",
"^  c #407C8F",
"/  c #417E91",
"(  c #468397",
")  c #4B899C",
"_  c #7FA09E",
"`  c #508EA1",
"'  c #5592A6",
"]  c #5B98AD",
"[  c #609EB2",
"{  c #63A1B6",
"}  c #65A3B8",
"|  c #69A7BC",
" . c #72A8B9",
".. c #7DB1BE",
"X. c #75AEC1",
"o. c #72B1C7",
"O. c #7AB6C9",
"+. c #79B8CE",
"@. c #7BB4C5",
"#. c #828585",
"$. c #859384",
"%. c #879588",
"&. c #8D9B8E",
"*. c #919B84",
"=. c #919595",
"-. c #96A08A",
";. c #84A29C",
":. c #95A296",
">. c #9BA295",
",. c #9DA99E",
"<. c #A1AA97",
"1. c #A4AD9B",
"2. c #A7B09F",
"3. c #84A5A1",
"4. c #82A9A9",
"5. c #A9B2A1",
"6. c #ACB3A9",
"7. c #B2BBAC",
"8. c #B1B3B3",
"9. c #B4BEB5",
"0. c #BCC5BB",
"q. c #C0C8BD",
"w. c #89BDCC",
"e. c #81BED2",
"r. c #89C3D6",
"t. c #91C9DA",
"y. c #99CEDE",
"u. c #ACDCE9",
"i. c #B5DCE4",
"p. c #BCE0E6",
"a. c #B4E2ED",
"s. c #C4C6C6",
"d. c #C5CDC3",
"f. c #CBCCCC",
"g. c #CCD3CC",
"h. c #CFDBD7",
"j. c #D0D1D1",
"k. c #D3DAD4",
"l. c #D9DBDB",
"z. c #C0DFE3",
"x. c #E1E2E2",
"c. c #EFF0F0",
"v. c #F6F6F6",
"b. c #FFFFFF",
/* pixels */
"b.b.b.b.b.b.b.b.b.b.b.b.b.b.b.b.b.b.b.b.b.b.b.#.                                #.b.b.b.b.b.b.b.b.b.b.b.b.b.b.b.b.b.b.b.b.b.b.b.",
"b.b.b.b.b.b.b.b.b.b.b.b.b.b.b.b.b.b.b.b.b.b.b.#.                                #.b.b.b.b.b.b.b.b.b.b.b.b.b.b.b.b.b.b.b.b.b.b.b.",
"b.b.b.b.b.b.b.b.b.b.b.b.b.b.b.b.b.b.b.b.b.J & g U U U U U U P T T T U T P T G T g & J b.b.b.b.b.b.b.b.b.b.b.b.b.b.b.b.b.b.b.b.b.",
"b.b.b.b.b.b.b.b.b.b.b.b.b.b.b.b.b.b.b.b.b.B   a W W E *.W W W W E W E *.*.W W E a   B b.b.b.b.b.b.b.b.b.b.b.b.b.b.b.b.b.b.b.b.b.",
"b.b.b.b.b.b.b.b.b.b.b.b.b.b.b.b.b.b.b.J s v Z >.q.q.q.7.W *.W W W W W W E W *.W U Z V s J b.b.b.b.b.b.b.b.b.b.b.b.b.b.b.b.b.b.b.",
"b.b.b.b.b.b.b.b.b.b.b.b.b.b.b.b.b.b.b.6   v W 7.k.k.k.q.W E W W W W W W W W W W W W v   6 b.b.b.b.b.b.b.b.b.b.b.b.b.b.b.b.b.b.b.",
"b.b.b.b.b.b.b.b.b.b.b.b.b.b.b.b.b.K H v h T W 7.k.k.k.q.W W *.W *.W W W W W W W W W U g v H K b.b.b.b.b.b.b.b.b.b.b.b.b.b.b.b.b.",
"b.b.b.b.b.b.b.b.b.b.b.b.b.b.b.b.b.+   G W W W 7.k.k.k.q.W W W W W W W W W W W W W W *.W G   + b.b.b.b.b.b.b.b.b.b.b.b.b.b.b.b.b.",
"b.b.b.b.b.b.b.b.b.b.b.b.b.b.b.b.b.+   G W W *.<.7.7.7.2.W W W W W W W W W W W W W W W W G   + b.b.b.b.b.b.b.b.b.b.b.b.b.b.b.b.b.",
"b.b.b.b.b.b.b.b.b.b.b.b.b.b.b.b.b.+   G W W W W W W W W W W W W W W W W W W W W *.W W W L   + b.b.b.b.b.b.b.b.b.b.b.b.b.b.b.b.b.",
"b.b.b.b.b.b.b.b.b.b.b.b.b.b.v.8.8.X   G W W W W W E Y Y R Y Y Y Y Y T T Y Y E W W W W W F   X 8.8.v.b.b.b.b.b.b.b.b.b.b.b.b.b.b.",
"b.b.b.b.b.b.b.b.b.b.b.b.b.b.v.        P W W W W W Y C k k k M M M C j v k k U W W W W W L   . .   v.b.b.b.b.b.b.b.b.b.b.b.b.b.b.",
"b.b.b.b.b.b.b.b.b.b.b.b.v.j.s.o o o o A R E W E E L M M M M M M M M M M M M I R E W E T F o X o o s.j.v.b.b.b.b.b.b.b.b.b.b.b.b.",
"b.b.b.b.b.b.b.b.b.b.b.b.j.    d d d d d d P W L k k M M M M M M M M M M M M M M L W P d d d d d d     j.b.b.b.b.b.b.b.b.b.b.b.b.",
"b.b.b.b.b.b.b.b.b.b.b.b.j.  . d d d d d d L W L M M M M M M M M M M M M M M M M L W L d d d d d d .   j.b.b.b.b.b.b.b.b.b.b.b.b.",
"b.b.b.b.b.b.b.b.b.b.b.b.j.  . d d - - t d j M M M M M M M M M M M M M M M M M M C k j d t - - d d .   j.b.b.b.b.b.b.b.b.b.b.b.b.",
"b.b.b.b.b.b.b.b.b.b.b.b.j.  . g d * - t d j k M C j C M M M M M k C M j M M M k k k j d y - - d d .   j.b.b.b.b.b.b.b.b.b.b.b.b.",
"b.b.b.b.b.b.b.b.b.b.b.b.b.c.x.. . t d d d j M t : : ; ; ; > d d d d > > : - > - d k j d y - * . . x.c.b.b.b.b.b.b.b.b.b.b.b.b.b.",
"b.b.b.b.b.b.b.b.b.b.b.b.b.b.c.    y d d d j M t ; * - - ; : d d d d > - - - - - 2 k j d y - *     c.b.b.b.b.b.b.b.b.b.b.b.b.b.b.",
"b.b.b.b.b.b.b.b.b.b.b.b.l.6 4     y d d d j M j h h h h g j R R T R j h h h h f k k j d d 0 0     4 7 l.b.b.b.b.b.b.b.b.b.b.b.b.",
"b.b.b.b.b.b.b.b.b.b.b.b.j.        y d g d j k M k k k M k n W W W W C M k k k k k k k d d d y         j.b.b.b.b.b.b.b.b.b.b.b.b.",
"b.b.b.b.b.b.b.b.b.b.f.B m q q q q @ @ 0 d j M M k D Y Y Y T W W W W R Y Y Y L k k k j d 0 @ @ q q q q m m f.b.b.b.b.b.b.b.b.b.b.",
"b.b.b.b.b.b.b.b.b.b.8.  + M M M k .   9 d j M M M L W W W W W W W W W W W W L k k k j d 0   . M V M M +   8.b.b.b.b.b.b.b.b.b.b.",
"b.b.b.b.b.b.b.b.s.#.S 4 p ,.,.,.,.g y 9 2 d h A P T W T x x c c x x x x T W Y U A h d 2 2 4 4 M M M M q 4 S #.s.b.b.b.b.b.b.b.b.",
"b.b.b.b.b.b.b.b.=.  % M I k.k.k.k.*.*.1 - e d L W W W P - - - - - - - - P W W W L d 2 - < k k k M M M M M %   =.b.b.b.b.b.b.b.b.",
"b.b.b.b.b.b.b.b.=.  % M I k.k.k.k.*.W 3 - < e z n P E T l l l l l l l l T W P n z 3 2 2 0 k k C M M M M M %   =.b.b.b.b.b.b.b.b.",
"b.b.b.b.b.b.b.b.=.  % M I k.k.k.k.*.W 3 - - - - - l W W W W W W W W W W W W l - - - < d d k k k M M M M M %   =.b.b.b.b.b.b.b.b.",
"b.b.b.b.b.b.b.b.=.  % M I q.q.0.0.*.W 3 - 3 r r 3 l P P n P P P P P P F P P x 3 r r y f j D D k M M M M M %   =.b.b.b.b.b.b.b.b.",
"b.b.b.b.b.b.b.b.=.  % M A W W W W W W 3 - F W W W n - - - - - - - - - - - * n W W W Y M A W W M M M M M M %   =.b.b.b.b.b.b.b.b.",
"b.b.b.b.b.b.b.b.=.  % M A W W W *.W W 3 - F W W W F 1 1 < < 1 < < < 1 1 < 1 n W *.W Y j A W E M M M M M M %   =.b.b.b.b.b.b.b.b.",
"b.b.b.b.b.b.b.b.=.  % M A W W W W W W 3 - F W W W W W W W W W W W W W W W W W W W W Y M A *.E M M M M M M %   =.b.b.b.b.b.b.b.b.",
"b.b.b.b.b.b.b.b.=.  % M A *.W W W W W 3 - F W W W W W W W W W W W W W W W W W W W W Y k A W W M M M M M M %   =.b.b.b.b.b.b.b.b.",
"b.b.b.b.s           % M A W W W W W W *.W W W x - N +.r.a.a.a.a.w.O.+.+.+.+.N - x W W W W W E k k M M M M %           s b.b.b.b.",
"b.b.b.b.s           % M A W W *.W W W W W W W x - N +.r.a.a.a.a.+.+.+.+.+.+.N - x W W W W W W k k k M M M %           s b.b.b.b.",
"b.b.i & Z Y r $ O   % M A W W W W d.g.d.g.<.W ;. .w.u.i.h.h.h.h.u.u.+.+.+.+.X. .;.W <.g.g.g.q.W E C M M k 2 $ $ $ 2 f w & i b.b.",
"b.b.&   Z W l - O   % M A W W W W g.k.k.k.1.W 4.+.t.a.p.k.k.k.k.a.a.e.+.+.+.+.+.4.W 1.k.k.k.g.W W C M M k 2 - - - 9 M w   & b.b.",
"s s w w Y W l - > 8 , < e D D W W g.k.k.k.1.W 4.+.t.a.p.k.k.k.k.a.a.e.+.` / } +.4.W 2.k.k.k.g.W W C k e 2 > - - = e M y # $ s s ",
"    f k T W l - 2 d 9 - < M C W *.g.k.k.k.2.W 4.+.t.a.p.k.k.k.k.a.a.e.+./ 5 ] +.4.W 2.k.k.k.k.W W C k > - - - - - 9 M g - $     ",
"    f k R E l - 2 d d y t e y W W 2.5.5.2.-.W 4.+.e.t.y.z.z.z.z.t.t.' ) ! 5 ] +.4.W -.2.2.2.2.n A C k t 2 2 e < - e M g - $     ",
"    f k R W l - 2 d g C h - > W W W W *.W W W 4.+.+.+.r.a.a.a.a.+.+.! 5 5 5 ] +.4.W W W W W E d d k k h d d d 2 = e k f - $     ",
"    f M R W l - 2 d d k k e t b b W W W W *.W 4.+.+.+.e.y.y.y.y.' ' Q 5 5 5 ] +._ W W W W W W d d h h d d d d 2 = e M g - $     ",
"    f M Y *.l - 2 d h k k k k - * E W W W W W 4.+.+.+.+.+.+.+.+.5 5 5 5 5 Q ] +. .W *.W W W E d d d d d d d d 2 = e v g - $     ",
"    f M Y W l - 2 d h C k k k 2 3 E W W W W W 4.+.+.+.o.[ [ [ [ 5 5 5 5 ~ ( o.+.4.W W W W W W d d d d d d d d 2 = r M d - $     ",
"    f M T W l - < d h k C k k k k E W W W W W 4.+.+.+.} 5 5 5 5 5 5 5 5 { +.+.+.4.W W W W W E d d d d d d d d 2 = 3 M g - $     ",
"    f M T W d - 2 d h j k k k k x T T T W W W 3...O.+.| ~ ~ ~ ~ ~ ~ ~ ~ | +.@.4.;.*.W W W T P d d d d d d d d 2 * e j g - $     ",
"    f M T *.l - 2 d d d d C k k v * * T W W W W W ;.+.+.+.+.+.+.+.+.+.+.+.+.;.W W W W W T * - d d d d d d d d 2 - e k g - $     ",
"    f M T W l - 2 d d d f k k k j > - T E E E W E ;.O.O.O.O.o.O.O.O.O.O.O.O.;.E E E E E P - - d d d d d d d d 2 - e k g - $     ",
"    f C T W l - 2 d d d d d d d d k C > * - - - - l W W W W W W W W W W W W l - 3 d d d d d d d d d d d d d d 3 * e k g - $     ",
"    f C R W l - 2 d d d d d d d d k C > - - - - - l *.W W W *.W W W W W W W l - 2 d d d d d d d d d d d d d d < ; e M g * *     ",
"    f k R W E E c - ; ; ; ; ; d d d d d d < - * - ; : r W W W W W W W W u > : - - - < d d d d d d > ; ; : : - t M j C g - *     ",
"    f k Y W W W b * - - - - ; d d d d d d < - ; - * - r W W W *.W W W W r * - - - - < d d d d d d ; - - = = - t C M M h * $     ",
"    f M 6.d.1.W E T n h h h h k k j k j j h h g g j h j A A A A A A A A v h h h h h h k k j k j j h h h h h h j M $.0.=.* $     ",
"    f M 0.h.2.W W W Y k M M M M M M M M M M k k C C k M M M j M M M M M M M M M M M M M k M M M C M j M M M k k M &.k.6.= *     ",
"    f M 9.k.d.0.2.W E T T Y Y Y Y T Y Y Y Y Y T Y Y Y Y Y Y Y Y Y Y Y Y Y Y Y Y Y Y Y Y Y Y Y Y Y Y Y Y Y Y Y :.6.q.k.6.- *     ",
"    f M 9.k.k.k.7.W W W W W W W W W W W W W W W W W W W W W W *.W W *.W W W W W W W *.W W W W W *.W W W *.W W 7.k.k.k.6.* $     ",
"    f M $.:.:.:.$.L L L L L L L L L L L L L L L L L L L L L L L L L L L L L L L L L L L L L L I L L L L L L L $.:.:.=.R * $     ",
"    f M M M M M M M M M M M M M M M M M M M M M M M M M M M M M k k M M M M M M M M M M M M M M M M M M M M M M M M M d = *     ",
"    f M M M M M M M M M M M M M M M M M M M M M M M M M M M M M M M M M M M M M M M M M M M M M M M M M M M M M M M M g - *     ",
"    f M M M M M M M M M M M M M M M M M M M M M M M M M M M M M M M M M M M M M M M M M M M M M M M M M M M M M M M M g * $     ",
"    f M M M M M M M M M M M M M M M M M M M M M M M M M M M M M M M M M M M M M M M M M M M M M M M M M M M M M M M M g = $     ",
"    f M v k M k M M M M M C k k M M M M C j M C M M M M k M M j M k k k M k M M k C j M M k k k M v k M M M M M M M M g * *     ",
"& & f j j j j j j j j j h j j j h v j j j j j j j j j j j j j j j j j j j j j j j j j j j j j j j j j j j j j j h j j u - = & & ",
"b.b.u - - - - - * - - - - - * - - - - = * * - - - - * ; - - - - * - - - - - - - - - - - * - - - - - - - - - - - - - - - = u b.b.",
"b.b.u - - - - - - - - - - - - - - - - = * : - - - - - * - - - - - - - - - - - - - - - - - - - - - - - - - - - - - - - = * u b.b."
};
