/* XPM */
static char *player_down[] = {
/* columns rows colors chars-per-pixel */
"64 64 96 2 ",
"   c black",
".  c #0D0805",
"X  c #040508",
"o  c #150D08",
"O  c #180F09",
"+  c #1A110A",
"@  c #1D130C",
"#  c #080911",
"$  c #090E1A",
"%  c #0C0E19",
"&  c #21110D",
"*  c #20140C",
"=  c #2B1A0F",
"-  c #2B1C11",
";  c #301E12",
":  c #302013",
">  c #3A2717",
",  c #3C2717",
"<  c #31231B",
"1  c #39291F",
"2  c #0A162E",
"3  c #1F273B",
"4  c #2E2925",
"5  c #322B22",
"6  c #373129",
"7  c #262832",
"8  c #402717",
"9  c #412B1A",
"0  c #452B1A",
"q  c #442D1B",
"w  c #432D1F",
"e  c #482D1B",
"r  c #4D321E",
"t  c #4F341F",
"y  c #523620",
"u  c #543822",
"i  c #573A23",
"p  c #563D2E",
"a  c #403930",
"s  c #564538",
"d  c #64432E",
"f  c #6D4A35",
"g  c #704C36",
"h  c #73523E",
"j  c #132D5C",
"k  c #343847",
"l  c #393C4C",
"z  c #1A3C75",
"x  c #3E404E",
"c  c #1D4379",
"v  c #574E42",
"b  c #494854",
"n  c #565054",
"m  c #62514A",
"M  c #615648",
"N  c #67554D",
"B  c #7E5842",
"V  c #7E5B43",
"C  c #715F54",
"Z  c #4B5C7E",
"A  c #6D6770",
"S  c #885F46",
"D  c #8D6348",
"F  c #90654A",
"G  c #866D53",
"H  c #8F6951",
"J  c #876D59",
"K  c #81735F",
"L  c #A17A5F",
"P  c #AC7B5D",
"I  c #8C7864",
"U  c #948067",
"Y  c #968067",
"T  c #9E866B",
"R  c #A28369",
"E  c #B38B6E",
"W  c #AE9277",
"Q  c #BA9C7E",
"!  c #1D438A",
"~  c #3A5784",
"^  c #224E98",
"/  c #275AA7",
"(  c #295DAB",
")  c #2A61B0",
"_  c #2C65B5",
"`  c #787E97",
"'  c #456DAB",
"]  c #547BB5",
"[  c #6E85A4",
"{  c #8A8988",
"}  c #8F949C",
"|  c #BCA184",
" . c #878CA1",
".. c #A4A8B5",
"X. c #C1AC8F",
"o. c None",
/* pixels */
"o.o.o.o.o.o.o.o.o.o.o.o.o.o.o.o.o.o.o.o.o.o.o.o.o.o.o.o.o.o.o.o.o.o.o.o.o.o.o.o.o.o.o.o.o.o.o.o.o.o.o.o.o.o.o.o.o.o.o.o.o.o.o.o.",
"o.o.o.o.o.o.o.o.o.o.o.o.o.o.o.o.o.o.o.o.o.o.o.o.o.o.o.o.o.o.o.o.o.o.o.o.o.o.o.o.o.o.o.o.o.o.o.o.o.o.o.o.o.o.o.o.o.o.o.o.o.o.o.o.",
"o.o.o.o.o.o.o.o.o.o.o.o.o.o.o.o.o.o.o.o.o.o.o.o.o.o.o.o.o.o.o.o.o.o.o.o.o.o.o.o.o.o.o.o.o.o.o.o.o.o.o.o.o.o.o.o.o.o.o.o.o.o.o.o.",
"o.o.o.o.o.o.o.o.o.o.o.o.o.o.o.o.o.o.o.o.o.o.o.o.o.o.o.o.o.o.o.o.o.o.o.o.o.o.o.o.o.o.o.o.o.o.o.o.o.o.o.o.o.o.o.o.o.o.o.o.o.o.o.o.",
"o.o.o.o.o.o.o.o.o.o.o.o.o.o.o.o.o.o.o.o.o.o.o.o.o.o.o.o.o.o.o.o.o.o.o.o.o.o.o.o.o.o.o.o.o.o.o.o.o.o.o.o.o.o.o.o.o.o.o.o.o.o.o.o.",
"o.o.o.o.o.o.o.o.o.o.o.o.o.o.o.o.o.o.o.o.o.o.                    o.o.o.          o.o.o.o.o.o.o.o.o.o.o.o.o.o.o.o.o.o.o.o.o.o.o.o.",
"o.o.o.o.o.o.o.o.o.o.o.o.o.o.o.o.o.o.o.o.o.                      o.o.o.          o.o.o.o.o.o.o.o.o.o.o.o.o.o.o.o.o.o.o.o.o.o.o.o.",
"o.o.o.o.o.o.o.o.o.o.o.o.o.o.o.o.o.o.o.o.o.                      o.o.o.          o.o.o.o.o.o.o.o.o.o.o.o.o.o.o.o.o.o.o.o.o.o.o.o.",
"o.o.o.o.o.o.o.o.o.o.o.o.o.o.o.o.o.o.o.o.o.      i i i i i e 8 8     @ i i @               o.o.o.o.o.o.o.o.o.o.o.o.o.o.o.o.o.o.o.",
"o.o.o.o.o.o.o.o.o.o.o.o.o.o.o.o.o.o.o.o.o.      i i i i i e 8 8     @ i i @               o.o.o.o.o.o.o.o.o.o.o.o.o.o.o.o.o.o.o.",
"o.o.o.o.o.o.o.o.o.o.o.o.o.o.o.o.o.o.o.o.o.      > > q i i r e e o o - i i : @ @ @ @ + o o . o.o.o.o.o.o.o.o.o.o.o.o.o.o.o.o.o.o.",
"o.o.o.o.o.o.o.o.o.o.o.o.o.o.o.o.o.o.o.o.o.          @ i i i i i 8 8 e i i i i i i i t 8 8 o     o.o.o.o.o.o.o.o.o.o.o.o.o.o.o.o.",
"o.o.o.o.o.o.o.o.o.o.o.o.o.o.o.o.o.o.o.o.o.          @ i i i i i 8 8 e i i i i i i i r 8 8 o     o.o.o.o.o.o.o.o.o.o.o.o.o.o.o.o.",
"o.o.o.o.o.o.o.o.o.o.o.o.o.o.o.o.o.o.o.    * = = > > q i i i i i t t y i i i i i i i i t t +     o.o.o.o.o.o.o.o.o.o.o.o.o.o.o.o.",
"o.o.o.o.o.o.o.o.o.o.o.o.o.o.o.o.o.o.o.    = 8 8 i i i i i i i i i i i i i i i i i i i i i @     o.o.o.o.o.o.o.o.o.o.o.o.o.o.o.o.",
"o.o.o.o.o.o.o.o.o.o.o.o.o.o.o.o.o.o.o.    = 8 8 i i i i i i i i i i i i i i i i i i i i i @     o.o.o.o.o.o.o.o.o.o.o.o.o.o.o.o.",
"o.o.o.o.o.o.o.o.o.o.o.o.o.o.o.o.    o 8 8 t i i i i i i i i i i 8 8 e i i i i i i i i i i e 8 8       o.o.o.o.o.o.o.o.o.o.o.o.o.",
"o.o.o.o.o.o.o.o.o.o.o.o.o.o.o.o.    o 8 8 t i i i i i i i i i i 8 8 e i i i i i i i i i i e 8 8       o.o.o.o.o.o.o.o.o.o.o.o.o.",
"o.o.o.o.o.o.o.o.o.o.o.o.o.o.o.o.    O e e y i i i i u t t t t t 8 8 0 t t i i i i i i i i r e e       o.o.o.o.o.o.o.o.o.o.o.o.o.",
"o.o.o.o.o.o.o.o.o.o.o.o.o.o.o.o.    @ i i i i i i i t 8 8 8 8 8 8 8 8 8 8 r i i i i i i i i i i       o.o.o.o.o.o.o.o.o.o.o.o.o.",
"o.o.o.o.o.o.o.o.o.o.o.o.o.o.o.o.    @ i i i i i i i t 8 8 8 8 8 8 8 8 8 8 t i i i i i i i i i i       o.o.o.o.o.o.o.o.o.o.o.o.o.",
"o.o.o.o.o.o.o.o.o.o.o.o.o.o.o.o.    @ i i i i i i i t 8 8 g S S S S S S S D F F e e r i i i i i       o.o.o.o.o.o.o.o.o.o.o.o.o.",
"o.o.o.o.o.o.o.o.o.o.o.o.o.o.o.o.    @ i i i i i i i t 8 8 S P P P P P P P P P P 8 8 e i i i i i       o.o.o.o.o.o.o.o.o.o.o.o.o.",
"o.o.o.o.o.o.o.o.o.o.o.o.o.o.o.o.    @ i i i i i i i t 8 8 S P P P P P P P P P P 8 8 e i i i i i       o.o.o.o.o.o.o.o.o.o.o.o.o.",
"o.o.o.o.o.o.o.o.o.o.o.o.o.o.o.o.    @ i i i i i , 8 d P P P P P P P P P P P P P P P S 8 8 t i i       o.o.o.o.o.o.o.o.o.o.o.o.o.",
"o.o.o.o.o.o.o.o.o.o.o.o.o.o.o.o.    @ i i i i i 8 8 d P P P P P P P P P P P P P P P S 8 8 t i i       o.o.o.o.o.o.o.o.o.o.o.o.o.",
"o.o.o.o.o.o.o.o.o.o.o.o.o.o.o.o.    + t t i i i d d f B B L E E E E E E E H B B P P S 8 8 , > >     o.o.o.o.o.o.o.o.o.o.o.o.o.o.",
"o.o.o.o.o.o.o.o.o.o.o.o.o.o.o.o.    o 8 8 t i i P P B & & I X.X.X.X.X.X.X.s & & P P S 8 8 o     o.o.o.o.o.o.o.o.o.o.o.o.o.o.o.o.",
"o.o.o.o.o.o.o.o.o.o.o.o.o.o.o.o.    o 8 8 t i i P P B & & I X.X.X.X.X.X.X.s & & P P S 8 8 o     o.o.o.o.o.o.o.o.o.o.o.o.o.o.o.o.",
"o.o.o.o.o.o.o.o.o.o.o.o.o.o.o.o.o.o.. o o 9 i i Q Q J & & I X.X.X.X.X.X.X.s & & Q Q W Y Y 5     o.o.o.o.o.o.o.o.o.o.o.o.o.o.o.o.",
"o.o.o.o.o.o.o.o.o.o.o.o.o.o.o.o.o.o.o.    > i i X.X.I & & I X.X.X.X.X.X.X.s & & X.X.X.X.X.a     o.o.o.o.o.o.o.o.o.o.o.o.o.o.o.o.",
"o.o.o.o.o.o.o.o.o.o.o.o.o.o.o.o.o.o.o.    > i i X.X.I & & I X.X.X.X.X.X.X.s & & X.X.X.X.X.a     o.o.o.o.o.o.o.o.o.o.o.o.o.o.o.o.",
"o.o.o.o.o.o.o.o.o.o.o.o.o.o.o.o.o.o.o.    h P P X.X.X.X.X.X.X.X.X.X.X.X.X.X.X.X.X.X.Q P P 1     o.o.o.o.o.o.o.o.o.o.o.o.o.o.o.o.",
"o.o.o.o.o.o.o.o.o.o.o.o.o.o.o.o.o.o.o.    h P P X.X.X.X.X.X.X.X.X.X.X.X.X.X.X.X.X.X.Q P P 1     o.o.o.o.o.o.o.o.o.o.o.o.o.o.o.o.",
"o.o.o.o.o.o.o.o.o.o.o.o.o.o.o.o.o.o.o.    p h h Q Q | X.X.X.X.X.X.X.X.X.X.X.X.X.Q Q R h h <     o.o.o.o.o.o.o.o.o.o.o.o.o.o.o.o.",
"o.o.o.o.o.o.o.o.o.o.o.o.o.o.o.o.o.o.o.o.o.      P P E X.X.X.X.X.X.X.X.X.X.X.X.X.P P h     o.o.o.o.o.o.o.o.o.o.o.o.o.o.o.o.o.o.o.",
"o.o.o.o.o.o.o.o.o.o.o.o.o.o.o.o.o.o.o.o.o.      P P E X.X.X.X.X.X.X.X.X.X.X.X.X.P P h     o.o.o.o.o.o.o.o.o.o.o.o.o.o.o.o.o.o.o.",
"o.o.o.o.o.o.o.o.o.o.o.o.o.o.o.o.o.o.o.o.o.      d d V E E E E E E E E E E E E E d d w     o.o.o.o.o.o.o.o.o.o.o.o.o.o.o.o.o.o.o.",
"o.o.o.o.o.o.o.o.o.o.o.o.o.o.o.o.o.o.o.o.o.      8 8 d P P P P P P P P P P P P P 8 8 =     o.o.o.o.o.o.o.o.o.o.o.o.o.o.o.o.o.o.o.",
"o.o.o.o.o.o.o.o.o.o.o.o.o.o.o.o.o.o.o.o.o.      8 8 d P P P P P P P P P P P P P 8 8 =     o.o.o.o.o.o.o.o.o.o.o.o.o.o.o.o.o.o.o.",
"o.o.o.o.o.o.o.o.o.o.o.o.o.o.o.o.o.o.o.o.o.      8 8 e i i A ` ` ` ` ` ` ` m i i 8 8 =     o.o.o.o.o.o.o.o.o.o.o.o.o.o.o.o.o.o.o.",
"o.o.o.o.o.o.o.o.o.o.o.o.o.o.o.o.o.o.o.o.o.      8 8 e i i A ` ` ` ` ` ` ` m i i 8 8 =     o.o.o.o.o.o.o.o.o.o.o.o.o.o.o.o.o.o.o.",
"o.o.o.o.o.o.o.o.o.o.o.o.o.o.o.o.o.o.o.o.o.      e e r i i A ` `  . . . . .N i i e e ;     o.o.o.o.o.o.o.o.o.o.o.o.o.o.o.o.o.o.o.",
"o.o.o.o.o.o.o.o.o.o.o.o.o.o.o.o.o.o.o.o.o.      i i i i i A ` ` ..........C i i i i >     o.o.o.o.o.o.o.o.o.o.o.o.o.o.o.o.o.o.o.",
"o.o.o.o.o.o.o.o.o.o.o.o.o.o.o.o.o.o.o.o.o.      i i i i i A ` ` ..........C i i i i >     o.o.o.o.o.o.o.o.o.o.o.o.o.o.o.o.o.o.o.",
"o.o.o.o.o.o.o.o.o.o.o.o.o.o.o.o.o.o.o.    M K K T T G i i Z ' ' ] ] ] ] ] n i i T T Y K K 6     o.o.o.o.o.o.o.o.o.o.o.o.o.o.o.o.",
"o.o.o.o.o.o.o.o.o.o.o.o.o.o.o.o.o.o.o.    K X.X.X.X.T i i ~ _ _ _ _ _ _ _ b i i X.X.X.X.X.a     o.o.o.o.o.o.o.o.o.o.o.o.o.o.o.o.",
"o.o.o.o.o.o.o.o.o.o.o.o.o.o.o.o.o.o.o.    K X.X.X.X.T i i ~ _ _ _ _ _ _ _ b i i X.X.X.X.X.a     o.o.o.o.o.o.o.o.o.o.o.o.o.o.o.o.",
"o.o.o.o.o.o.o.o.o.o.o.o.o.o.o.o.o.o.o.    K X.X.X.X.} _ _ _ _ _ ! ! ^ _ _ _ _ _ X.X.X.X.X.a     o.o.o.o.o.o.o.o.o.o.o.o.o.o.o.o.",
"o.o.o.o.o.o.o.o.o.o.o.o.o.o.o.o.o.o.o.    K X.X.X.X.} _ _ _ _ _ ! ! ^ _ _ _ _ _ X.X.X.X.X.a     o.o.o.o.o.o.o.o.o.o.o.o.o.o.o.o.",
"o.o.o.o.o.o.o.o.o.o.o.o.o.o.o.o.o.o.o.X X v K K } } [ _ _ ( / / j j z / / ) _ _ } } { K K 4 X X o.o.o.o.o.o.o.o.o.o.o.o.o.o.o.o.",
"o.o.o.o.o.o.o.o.o.o.o.o.o.o.o.o.o.o.o.% % X     _ _ _ _ _ ^ ! !     2 ! ! / _ _ _ _ c     # % % o.o.o.o.o.o.o.o.o.o.o.o.o.o.o.o.",
"o.o.o.o.o.o.o.o.o.o.o.o.o.o.o.o.o.o.o.% % X     _ _ _ _ _ ^ ! !     2 ! ! / _ _ _ _ c     # % % o.o.o.o.o.o.o.o.o.o.o.o.o.o.o.o.",
"o.o.o.o.o.o.o.o.o.o.o.o.o.o.o.o.% % % % % X     l l x b b 3 2 2 # # $ 2 2 k b b l l 7     # % % % % o.o.o.o.o.o.o.o.o.o.o.o.o.o.",
"o.o.o.o.o.o.o.o.o.o.o.o.o.o.o.o.% % % % % X     8 8 e i i @     % % #     > i i 8 8 =     # % % % % % o.o.o.o.o.o.o.o.o.o.o.o.o.",
"o.o.o.o.o.o.o.o.o.o.o.o.o.o.o.o.% % % % % X     8 8 e i i @     % % #     > i i 8 8 =     # % % % % % o.o.o.o.o.o.o.o.o.o.o.o.o.",
"o.o.o.o.o.o.o.o.o.o.o.o.o.o.o.o.% % % % % % % % % % % % % % % % % % % % % % % % % % % % % % % % % % % o.o.o.o.o.o.o.o.o.o.o.o.o.",
"o.o.o.o.o.o.o.o.o.o.o.o.o.o.o.o.% % % % % % % % % % % % % % % % % % % % % % % % % % % % % % % % % % % o.o.o.o.o.o.o.o.o.o.o.o.o.",
"o.o.o.o.o.o.o.o.o.o.o.o.o.o.o.o.% % % % % % % % % % % % % % % % % % % % % % % % % % % % % % % % % % o.o.o.o.o.o.o.o.o.o.o.o.o.o.",
"o.o.o.o.o.o.o.o.o.o.o.o.o.o.o.o.o.o.o.% % % % % % % % % % % % % % % % % % % % % % % % % % % % % o.o.o.o.o.o.o.o.o.o.o.o.o.o.o.o.",
"o.o.o.o.o.o.o.o.o.o.o.o.o.o.o.o.o.o.o.% % % % % % % % % % % % % % % % % % % % % % % % % % % % % o.o.o.o.o.o.o.o.o.o.o.o.o.o.o.o.",
"o.o.o.o.o.o.o.o.o.o.o.o.o.o.o.o.o.o.o.o.o.o.o.o.o.o.o.o.o.o.o.o.o.o.o.o.o.o.o.o.o.o.o.o.o.o.o.o.o.o.o.o.o.o.o.o.o.o.o.o.o.o.o.o.",
"o.o.o.o.o.o.o.o.o.o.o.o.o.o.o.o.o.o.o.o.o.o.o.o.o.o.o.o.o.o.o.o.o.o.o.o.o.o.o.o.o.o.o.o.o.o.o.o.o.o.o.o.o.o.o.o.o.o.o.o.o.o.o.o.",
"o.o.o.o.o.o.o.o.o.o.o.o.o.o.o.o.o.o.o.o.o.o.o.o.o.o.o.o.o.o.o.o.o.o.o.o.o.o.o.o.o.o.o.o.o.o.o.o.o.o.o.o.o.o.o.o.o.o.o.o.o.o.o.o."
};
