/* XPM */
static char *player_left[] = {
/* columns rows colors chars-per-pixel */
"64 64 90 1 ",
"  c black",
". c #030306",
"X c #0B0604",
"o c #040508",
"O c #120B07",
"+ c #150D08",
"@ c #19110A",
"# c #1A110A",
"$ c #1D130C",
"% c #080911",
"& c #0B0C16",
"* c #0C0E19",
"= c #21110D",
"- c #20140C",
"; c #26180E",
": c #2B1A0F",
"> c #221913",
", c #271A10",
"< c #291E1A",
"1 c #352215",
"2 c #392314",
"3 c #3A2717",
"4 c #31231B",
"5 c #39291F",
"6 c #0A162E",
"7 c #0F223C",
"8 c #1A2338",
"9 c #3E342A",
"0 c #34303D",
"q c #402717",
"w c #432918",
"e c #412B1A",
"r c #432D1F",
"t c #482D1B",
"y c #4C301F",
"u c #4D321E",
"i c #4D341F",
"p c #4F341F",
"a c #462F20",
"s c #523620",
"d c #513524",
"f c #543822",
"g c #573A23",
"h c #5D3E29",
"j c #403930",
"k c #64432E",
"l c #6D4A35",
"z c #704C36",
"x c #73523E",
"c c #78533A",
"v c #222F44",
"b c #3B3845",
"n c #393C4C",
"m c #574E42",
"M c #444451",
"N c #494854",
"B c #615648",
"V c #7E5842",
"C c #74737A",
"Z c #885F46",
"A c #90654A",
"S c #94684D",
"D c #816850",
"F c #8A6B53",
"G c #876D59",
"H c #81735F",
"J c #A07255",
"K c #A17A5F",
"L c #AC7B5D",
"P c #8C7864",
"I c #968067",
"U c #9E866B",
"Y c #B38B6E",
"T c #B59173",
"R c #BA9C7E",
"E c #1D438A",
"W c #224E98",
"Q c #275AA7",
"! c #295DAB",
"~ c #2C65B5",
"^ c #787E97",
"/ c #8A898D",
"( c #82879E",
") c #BFA789",
"_ c #878CA1",
"` c #959AAB",
"' c #9FA3B2",
"] c #A4A8B5",
"[ c #C1AC8F",
"{ c None",
/* pixels */
"{{{{{{{{{{{{{{{{{{{{{{{{{{{{{{{{{{{{{{{{{{{{{{{{{{{{{{{{{{{{{{{{",
"{{{{{{{{{{{{{{{{{{{{{{{{{{{{{{{{{{{{{{{{{{{{{{{{{{{{{{{{{{{{{{{{",
"{{{{{{{{{{{{{{{{{{{{{{{{{{{{{{{{{{{{{{{{{{{{{{{{{{{{{{{{{{{{{{{{",
"{{{{{{{{{{{{{{{{{{{{{{{{{{{{{{{{{{{{{{{{{{{{{{{{{{{{{{{{{{{{{{{{",
"{{{{{{{{{{{{{{{{{{{{{{{{{{{{{{{{{{{{{{{{{{{{{{{{{{{{{{{{{{{{{{{{",
"{{{{{{{{{{{{{{{{{{{{{{{{{{{     {{{          {{{{{{{{{{{{{{{{{{{",
"{{{{{{{{{{{{{{{{{{{{{{{{{{{     {{{          {{{{{{{{{{{{{{{{{{{",
"{{{{{{{{{{{{{{{{{{{{{{{{{{{     {{{          {{{{{{{{{{{{{{{{{{{",
"{{{{{{{{{{{{{{{{{{{{{        3gg  +qqpgggg3  {{{{{{{{{{{{{{{{{{{",
"{{{{{{{{{{{{{{{{{{{{{        3gg  +qqpgggg3  {{{{{{{{{{{{{{{{{{{",
"{{{{{{{{{{{{{{{{{{{{{#$$$$#++egg++;ttsgg33,  {{{{{{{{{{{{{{{{{{{",
"{{{{{{{{{{{{{{{{{{{  3ggggpqqpggqqtggggg     {{{{{{{{{{{{{{{{{{{",
"{{{{{{{{{{{{{{{{{{{  3ggggpqqpggqqtggggg     {{{{{{{{{{{{{{{{{{{",
"{{{{{{{{{{{{{{{{  #33ugggggppsggppsggggg331::O  {{{{{{{{{{{{{{{{",
"{{{{{{{{{{{{{{{{  $gggggggggggggggggggggggpqq+  {{{{{{{{{{{{{{{{",
"{{{{{{{{{{{{{{{{  $gggggggggggggggggggggggpqq+  {{{{{{{{{{{{{{{{",
"{{{{{{{{{{{{{   gggggggggggggggggggggggggggggtqq   {{{{{{{{{{{{{",
"{{{{{{{{{{{{{   gggggggggggggggggggggggggggggtqq   {{{{{{{{{{{{{",
"{{{{{{{{{{{{{   ggggggggpppppggggggggsppgggggtqq   {{{{{{{{{{{{{",
"{{{{{{{{{{{{{   ggggggggqqqqqpgggggggtqqgggggtqq   {{{{{{{{{{{{{",
"{{{{{{{{{{{{{   ggggggggqqqqqpgggggggtqqgggggtqq   {{{{{{{{{{{{{",
"{{{{{{{{{{{  -::ggsttcAAZZzqqpgggggggtqqttttteqq   {{{{{{{{{{{{{",
"{{{{{{{{{{{  :qqggpqqZLLLLZqqpgggggggtqqqqqqqqqq   {{{{{{{{{{{{{",
"{{{{{{{{{{{  :qqggpqqZLLLLZqqpgggggggtqqqqqqqqqq   {{{{{{{{{{{{{",
"{{{{{{{{{{{  :qqqqkLLLLLLLLLLkqqgggggtqqqqtggtqq   {{{{{{{{{{{{{",
"{{{{{{{{{{{  :qqqqkLLLLLLLLLLkqqgggggtqqqqtggtqq   {{{{{{{{{{{{{",
"{{{{{{{{{{{  :qq::aVVKYYYYKVVlkkggfpphkkttuggtqq   {{{{{{{{{{{{{",
"{{{{{{{{{{{  :qq  X==P[[[[P==VLLggpqqZLLgggggtqq   {{{{{{{{{{{{{",
"{{{{{{{{{{{  :qq  X==P[[[[P==VLLggpqqZLLgggggtqq   {{{{{{{{{{{{{",
"{{{{{{{{{{{{{O++  X==P[[[[P==GRRtthZZJLLggstteqq   {{{{{{{{{{{{{",
"{{{{{{{{{{{{{     X==P[[[[P==P[[qqkLLLLLggpqqqqq   {{{{{{{{{{{{{",
"{{{{{{{{{{{{{     X==P[[[[P==P[[qqkLLLLLggpqqqqq   {{{{{{{{{{{{{",
"{{{{{{{{{{{{{{{{  j[[[[[[[[[[[[[[[RLLLLLqqqqq+  {{{{{{{{{{{{{{{{",
"{{{{{{{{{{{{{{{{  j[[[[[[[[[[[[[[[RLLLLLqqqqq+  {{{{{{{{{{{{{{{{",
"{{{{{{{{{{{{{{{{  9RR)[[[[[[[[[[RRTLLSZZqq3::O  {{{{{{{{{{{{{{{{",
"{{{{{{{{{{{{{{{{  5LLR[[[[[[[[[[LLLLLkqqqq:  {{{{{{{{{{{{{{{{{{{",
"{{{{{{{{{{{{{{{{  5LLR[[[[[[[[[[LLLLLkwqqq:  {{{{{{{{{{{{{{{{{{{",
"{{{{{{{{{{{{{{{{{{>55FYYYYYYYYYYLLSkktqq++O{{{{{{{{{{{{{{{{{{{{{",
"{{{{{{{{{{{{{{{{{{{  xLLLLLLLLLLLLZqqqqq   {{{{{{{{{{{{{{{{{{{{{",
"{{{{{{{{{{{{{{{{{{{  xLLLLLLLLLLLLZqqqqq   {{{{{{{{{{{{{{{{{{{{{",
"{{{{{{{{{{{{{{{{{{{  :qq^^^^^^^^ggpqqqqq   {{{{{{{{{{{{{{{{{{{{{",
"{{{{{{{{{{{{{{{{{{{  :qq^^^^^^^^ggpqqqqq   {{{{{{{{{{{{{{{{{{{{{",
"{{{{{{{{{{{{{{{{{{{  :qq__(^^^^^ggftteqq   {{{{{{{{{{{{{{{{{{{{{",
"{{{{{{{{{{{{{{{{{{{  :qq]]`^^^^^gggggtqe   {{{{{{{{{{{{{{{{{{{{{",
"{{{{{{{{{{{{{{{{{{{  :qq]]`^^^^^gggggt33   {{{{{{{{{{{{{{{{{{{{{",
"{{{{{{{{{{{{{{{{  4xxdqq]]'``(^^gggggDIKCPB  {{{{{{{{{{{{{{{{{{{",
"{{{{{{{{{{{{{{{{  5LLkqq]]]]]_^^gggggU[[)[G  {{{{{{{{{{{{{{{{{{{",
"{{{{{{{{{{{{{{{{  5LLkqq]]]]]_^^gggggU[[[[H  {{{{{{{{{{{{{{{{{{{",
"{{{{{{{{{{{{{{{{  5LLkqq~~~~~~~~gggggU[[[[H  {{{{{{{{{{{{{{{{{{{",
"{{{{{{{{{{{{{{{{  5LLkqq~~~~~~~~gggggU[[[[H  {{{{{{{{{{{{{{{{{{{",
"{{{{{{{{{{{{{{{{oo<xxr::~~~~~!QQNNNNNC//HHmoo{{{{{{{{{{{{{{{{{{{",
"{{{{{{{{{{{{{{{{**%     ~~~~~WEE~~~~~WEE  o**{{{{{{{{{{{{{{{{{{{",
"{{{{{{{{{{{{{{{{**%     ~~~~~WEE~~~~~WEE  o**{{{{{{{{{{{{{{{{{{{",
"{{{{{{{{{{{{{{****&%%.  NNMnn86677vNNb00  o*****{{{{{{{{{{{{{{{{",
"{{{{{{{{{{{{{********o  ggpqq+    $ggtqq  o*****{{{{{{{{{{{{{{{{",
"{{{{{{{{{{{{{********o  ggpqq+    $ggtqq  o*****{{{{{{{{{{{{{{{{",
"{{{{{{{{{{{{{***********************************{{{{{{{{{{{{{{{{",
"{{{{{{{{{{{{{***********************************{{{{{{{{{{{{{{{{",
"{{{{{{{{{{{{{{**********************************{{{{{{{{{{{{{{{{",
"{{{{{{{{{{{{{{{{*****************************{{{{{{{{{{{{{{{{{{{",
"{{{{{{{{{{{{{{{{*****************************{{{{{{{{{{{{{{{{{{{",
"{{{{{{{{{{{{{{{{{{{{{{{{{{{{{{{{{{{{{{{{{{{{{{{{{{{{{{{{{{{{{{{{",
"{{{{{{{{{{{{{{{{{{{{{{{{{{{{{{{{{{{{{{{{{{{{{{{{{{{{{{{{{{{{{{{{",
"{{{{{{{{{{{{{{{{{{{{{{{{{{{{{{{{{{{{{{{{{{{{{{{{{{{{{{{{{{{{{{{{"
};
