/* XPM */
static char *deccc0eec4264782c10b8e5a68c69707I0uj93rB4pj6qLXn[] = {
/* columns rows colors chars-per-pixel */
"64 64 59 1 ",
"  c black",
". c #040508",
"X c #120B07",
"o c #150D08",
"O c #1D130C",
"+ c #080911",
"@ c #090E1A",
"# c #0C0E19",
"$ c #24160D",
"% c #26180E",
"& c #2B1A0F",
"* c #271A10",
"= c #291E1A",
"- c #352215",
"; c #392314",
": c #3A2717",
"> c #31231B",
", c #39291F",
"< c #0A162E",
"1 c #181F33",
"2 c #232029",
"3 c #262838",
"4 c #34303D",
"5 c #402717",
"6 c #432918",
"7 c #452B1A",
"8 c #442D1B",
"9 c #482D1B",
"0 c #4A2F1C",
"q c #4D321E",
"w c #4F341F",
"e c #4D3524",
"r c #4E382C",
"t c #523620",
"y c #573A23",
"u c #563A27",
"i c #583A27",
"p c #563D2E",
"a c #64432E",
"s c #694834",
"d c #735036",
"f c #73523E",
"g c #132D5C",
"h c #1A3C75",
"j c #3A4871",
"k c #4D567B",
"l c #5F7160",
"z c #865E43",
"x c #885F46",
"c c #94684D",
"v c #A07255",
"b c #AC7B5D",
"n c #778570",
"m c #8D977F",
"M c #1D438A",
"N c #204B94",
"B c #224E98",
"V c #275AA7",
"C c #2C65B5",
/* pixels */
"llllllllllllllllllllllllllllllllllllllllllllllllllllllllllllllll",
"lmmmmnmmmmmmmmmmmmmmmmmmmmmmmmmmmmmmmmmmmmmmmmmmmmmmmmmmmmnmmmml",
"lmmmmmnmmmmmmmmmmmmmmmmmmmmmmmmmmmmmmmmmmmmmmmmmmmmmmmmmmnmmmmml",
"lmmmmmmnllllllllllllllllllllllllllllllllllllllllllllllllnmmmmmml",
"lmmmmmmlnnnnnnnnnnnnnnnnnnnnnnnnnnnnnnnnnnnnnnnnnnnnnnnnlmmmmmml",
"lnmmmmmllllllllllllllllllll     lll          llllllllllllmmmmmnl",
"lmnmmmllnnnlnnlnnnnnnnnnnnn     nnn          nnnnlnnlnnnllmmmnml",
"lmmnlllnnnnlnnlnnnnnnnnnnnn     nnn          nnnnlnnlnnnnlllnmml",
"lmmlnlnnnllnnnlnllnnn        :yy  o55wyyyy:  nllnlnnnllnnnlnlmml",
"lmmlnlnnlnnnnnlnmlnnn        :yy  o55wyyyy:  nlmnlnnnnnlnnlnlmml",
"lmmlnlnnlnnnnlllmnllnXooOOOOO8yyoo%99tyy::*  lnmlllnnnnlnnlnlmml",
"lmmlnlllnnnnlnnnmnm  &55yyyyyyyy559yyyyy     mnmnnnlnnnnlllnlmml",
"lmmlnlnnnnnlnnllnnm  &55yyyyyyyy559yyyyy     mnnllnnlnnnnnlnlmml",
"lmmlnlnnnnlnnlmmmmn  -wwyyyyyyyywwtyyyyy::-&&X  mmlnnlnnnnlnlmml",
"lmmlnllllllnlmmmmmm  :yyyyyyyyyyyyyyyyyyyyw55o  mmmlnllllllnlmml",
"lmmlnlnnnnlnlmmmmmm  :yyyyyyyyyyyyyyyyyyyyw55o  mmmlnlnnnnlnlmml",
"lmmlnlnnlmmmnmmm  o55wyyyyyyyyyyyyyyyyyyyyyyy955   nmmmlnnlnlmml",
"lmmlnlnnllnnnmmm  o55wyyyyyyyyyyyyyyyyyyyyyyy955   nnnllnnlnlmml",
"lmmlnlnnnnlmmnmm  o55wyyyyyyyyyyyyyyyyyyyyyyy955   mmlnnnnlnlmml",
"lmmlnlnnnnlmmmnn  o55wyyyyyyyyyyyyyyyyyyyyyyy955   mmlnnnnlnlmml",
"lmmlnlnnnnnlmmnm  o55wyyyyyyyyyyyyyyyyyyyyyyy955   mlnnnnnlnlmml",
"lmmlnlnnnnnnllnm  o55wyyyyyyyyyyyyyyyyyyyyyyy955   lnnnnnnlnlmml",
"lmmlnlnnnnnnnnlm  o55wyyyyyyyyyyyyyyyyyyyyyyy955   nnnnnnnlnlmml",
"lmmlnlnnnnnnnnll  o55wyyyyyyyyyyyyyyyyyyyyyyy955   nnnnnnnlnlmml",
"lmmlnlnnnnnnnnnn  o55555yyyyyyyyyyyyyyyyyyw55555   nnnnnnnlnlmml",
"lmmlnlnnnnnnnnnn  o55555yyyyyyyyyyyyyyyyyyw55555   nnnnnnnlnlmml",
"lmmlnlnnnnnnllll  X&&;55wwwwwyyyyyyyytwwww055555   lnnnnnnlnlmml",
"lmmlnlnnnnnlnnnnmmm  &5555555wyyyyyyy95555555555   nlnnnnnlnlmml",
"lmmlnlnnnnlnnlllmmm  &5555555wyyyyyyy95555555555   nnlnnnnlnlmml",
"lmmlnlnnnnlnlmmmmmm  &55555557999999965555555$oommmlnlnnnnlnlmml",
"lmmlnlnnnnlnlmmmmmm  &55555555555555555555555o  mmmlnlnnnnlnlmml",
"lmmlnlnnnnlnlmmlmmm  &55555555555555555555555o  lmmlnlnnnnlnlmml",
"lmmlnlnnnnlnlmmlmmm  fbb555555555555555555abb,  lmmlnlnnnnlnlmml",
"lmmlnlnnnnlnlmmmmmm  fbb555555555555555555abb,  mmmlnlnnnnlnlmml",
"lmmlnlnnnnlnlmmmmmm  pffaaaaaq5555555iaaaasff>  mmmlnlnnnnlnlmml",
"lmmlnlnnnnlnnlllmmmnm   bbbbba5555555xbbbbf  mmmlllnnlnnnnlnlmml",
"lmmlnlnnnnnlnnnnmmmnm   bbbbba5555555xbbbbf  mmmnnnnlnnnnnlnlmml",
"lmmlnlnnnnnnllllmmmnm   ddzbbcxxxxxxxvbbdde  mmmllllnnnnnnlnlmml",
"lmmlnlnnnnnnnnnnmmmnm   yydbbbbbbbbbbbbbyy:  mmmnnnnnnnnnnlnlmml",
"lmmlnlnnnnnnnnnnmmmnm   yudbbbbbbbbbbbbbyy:  mmmnnnnnnnnnnlnlmml",
"lmmlnlnnnnnnnnllmmmmn   yyyyyyyyyyyyyyyyyy:  mmmllnnnnnnnnlnlmml",
"lmmlnlnnnnnnnnlmmmmmn   yyyyyyyyyyyyyyyyyy:  mmmmlnnnnnnnnlnlmml",
"lmmlnlnnnnnnllnmmmmmm   yyyyyyyyyyyyyyyyyy:  mmmmnllnnnnnnlnlmml",
"lmmlnlnnnnnlmmnmmmmmm   yyyyyyyyyyyyyyyyyy:  mmmmnmmlnnnnnlnlmml",
"lmmlnlnnnnlmmmnnmmmmm   yyyyyyyyyyyyyyyyyy:  mmmnnmmmlnnnnlnlmml",
"lmmlnlnnnnlmmnmmmmm  pff99qyyyyyyyyyyyyy99uff>  mmnmmlnnnnlnlmml",
"lmmlnlnnllnnnmmmmmm  fbb559yyyyyyyyyyyyy55abb,  mmmnnnllnnlnlmml",
"lmmlnlnnlmmmnmmmmmm  fbb559yyyyyyyyyyyyy55abb,  mmmnmmmlnnlnlmml",
"lmmlnlnnnnlnlmmmmmm  fbbMMBCCCCCMMBCCCCCMMkbb,  mmmnmmmlnnlnlmml",
"lmmlnllllllnlmmmmmm  fbbMMBCCCCCMMBCCCCCMMkbb,  mmmlnllllllnlmml",
"lmmlnlnnnnlnnlmmmmn..rffMMNVVVVVgghVVVVVMMjff=..mmlnnlnnnnlnlmml",
"lmmlnlnnnnnlnnllnnm##.  MMMMMMMM  <MMMMMMMg  +##llnnlnnnnnlnlmml",
"lmmlnlllnnnnlnnnmnm##.  MMMMMMMM  <MMMMMMMg  +##nnnlnnnnlllnlmml",
"lmmlnlnnlnnnnlll#####.  444441<<++@<<344442  +####lnnnnlnnlnlmml",
"lmmlnlnnlnnnnnln#####.  55555o  ##+  &5555&  +#####nnnnlnnlnlmml",
"lmmlnlnnnllnnnln#####.  55555o  ##+  &5555&  +#####nnllnnnlnlmml",
"lmmnlllnnnnlnnln###################################nlnnnnlllnmml",
"lmnmmmllnnnlnnln###################################nlnnnllmmmnml",
"lnmmmmmlllllllll##################################lllllllmmmmmnl",
"lmmmmmmlnnnnnnnnnnn#############################nnnnnnnnlmmmmmml",
"lmmmmmmnlllllllllll#############################llllllllnmmmmmml",
"lmmmmmnmmmmmmmmmmmmmmmmmmmmmmmmmmmmmmmmmmmmmmmmmmmmmmmmmmnmmmmml",
"lmmmmnmmmmmmmmmmmmmmmmmmmmmmmmmmmmmmmmmmmmmmmmmmmmmmmmmmmmnmmmml",
"llllllllllllllllllllllllllllllllllllllllllllllllllllllllllllllll"
};
