/* XPM */
static char *_21089ed64234a829250b09013169df3N7XyweQNm3dR4Plw[] = {
/* columns rows colors chars-per-pixel */
"64 64 94 2 ",
"   c black",
".  c #0D0805",
"X  c #040508",
"o  c #150D08",
"O  c #180F09",
"+  c #1A110A",
"@  c #1D130C",
"#  c #080911",
"$  c #090E1A",
"%  c #0C0E19",
"&  c #21110D",
"*  c #20140C",
"=  c #2B1A0F",
"-  c #2B1C11",
";  c #301E12",
":  c #302013",
">  c #3A2717",
",  c #3C2717",
"<  c #31231B",
"1  c #39291F",
"2  c #0A162E",
"3  c #2E2925",
"4  c #322B22",
"5  c #373129",
"6  c #262832",
"7  c #402717",
"8  c #412B1A",
"9  c #452B1A",
"0  c #442D1B",
"q  c #432D1F",
"w  c #482D1B",
"e  c #4D321E",
"r  c #4F341F",
"t  c #523620",
"y  c #543822",
"u  c #573A23",
"i  c #563D2E",
"p  c #403930",
"a  c #564538",
"s  c #64432E",
"d  c #6D4A35",
"f  c #704C36",
"g  c #73523E",
"h  c #132D5C",
"j  c #343847",
"k  c #393C4C",
"l  c #1A3C75",
"z  c #3E404E",
"x  c #1D4379",
"c  c #574E42",
"v  c #494854",
"b  c #565054",
"n  c #62514A",
"m  c #615648",
"M  c #67554D",
"N  c #7E5842",
"B  c #715F54",
"V  c #5F7160",
"C  c #6D6770",
"Z  c #885F46",
"A  c #8D6348",
"S  c #90654A",
"D  c #866D53",
"F  c #8F6951",
"G  c #876D59",
"H  c #81735F",
"J  c #A17A5F",
"K  c #AC7B5D",
"L  c #8C7864",
"P  c #778570",
"I  c #968067",
"U  c #9E866B",
"Y  c #8D977F",
"T  c #A28369",
"R  c #B38B6E",
"E  c #AE9277",
"W  c #BA9C7E",
"Q  c #1D438A",
"!  c #3A5784",
"~  c #224E98",
"^  c #275AA7",
"/  c #295DAB",
"(  c #2A61B0",
")  c #2C65B5",
"_  c #787E97",
"`  c #456DAB",
"'  c #547BB5",
"]  c #6E85A4",
"[  c #8A8988",
"{  c #8F949C",
"}  c #BCA184",
"|  c #878CA1",
" . c #A4A8B5",
".. c #C1AC8F",
/* pixels */
"V V V V V V V V V V V V V V V V V V V V V V V V V V V V V V V V V V V V V V V V V V V V V V V V V V V V V V V V V V V V V V V V ",
"V Y Y Y Y P Y Y Y Y Y Y Y Y Y Y Y Y Y Y Y Y Y Y Y Y Y Y Y Y Y Y Y Y Y Y Y Y Y Y Y Y Y Y Y Y Y Y Y Y Y Y Y Y Y Y Y Y P Y Y Y Y V ",
"V Y Y Y Y Y P Y Y Y Y Y Y Y Y Y Y Y Y Y Y Y Y Y Y Y Y Y Y Y Y Y Y Y Y Y Y Y Y Y Y Y Y Y Y Y Y Y Y Y Y Y Y Y Y Y Y P Y Y Y Y Y V ",
"V Y Y Y Y Y Y P V V V V V V V V V V V V V V V V V V V V V V V V V V V V V V V V V V V V V V V V V V V V V V V V P Y Y Y Y Y Y V ",
"V Y Y Y Y Y Y V P P P P P P P P P P P P P P P P P P P P P P P P P P P P P P P P P P P P P P P P P P P P P P P P V Y Y Y Y Y Y V ",
"V P Y Y Y Y Y V V V V V V V V V V V V V V V                     V V V           V V V V V V V V V V V V V V V V V Y Y Y Y Y P V ",
"V Y P Y Y Y V V P P P V P P V P P P P P P                       P P P           P P P P P P P P P V P P V P P P V V Y Y Y P Y V ",
"V Y Y P V V V P P P P V P P V P P P P P P                       P P P           P P P P P P P P P V P P V P P P P V V V P Y Y V ",
"V Y Y V P V P P P V V P P P V P V V P P P       u u u u u w 7 7     @ u u @               P V V P V P P P V V P P P V P V Y Y V ",
"V Y Y V P V P P V P P P P P V P Y V P P P       u u u u u w 7 7     @ u u @               P V Y P V P P P P P V P P V P V Y Y V ",
"V Y Y V P V P P V P P P P V V V Y P V V P       , > 0 u u e w w o o - u u : @ @ @ @ + o o . P Y V V V P P P P V P P V P V Y Y V ",
"V Y Y V P V V V P P P P V P P P Y P Y Y V           @ u u u u u 7 7 w u u u u u u u r 7 7 o     P P P V P P P P V V V P V Y Y V ",
"V Y Y V P V P P P P P V P P V V P P Y Y Y           @ u u u u u 7 7 w u u u u u u u e 7 7 o     V V P P V P P P P P V P V Y Y V ",
"V Y Y V P V P P P P V P P V Y Y Y Y P     * = = > > 0 u u u u u r r t u u u u u u u u r r +     Y Y V P P V P P P P V P V Y Y V ",
"V Y Y V P V V V V V V P V Y Y Y Y Y Y     = 7 7 u u u u u u u u u u u u u u u u u u u u u @     Y Y Y V P V V V V V V P V Y Y V ",
"V Y Y V P V P P P P V P V Y Y Y Y Y Y     = 7 7 u u u u u u u u u u u u u u u u u u u u u @     Y Y Y V P V P P P P V P V Y Y V ",
"V Y Y V P V P P V Y Y Y P Y Y Y     o 7 7 r u u u u u u u u u u 7 7 w u u u u u u u u u u w 7 7       P Y Y Y V P P V P V Y Y V ",
"V Y Y V P V P P V V P P P Y Y Y     o 7 7 r u u u u u u u u u u 7 7 w u u u u u u u u u u w 7 7       P P P V V P P V P V Y Y V ",
"V Y Y V P V P P P P V Y Y P Y Y     O w w t u u u u u r r r r r 7 7 9 r r u u u u u u u u e w w       Y Y V P P P P V P V Y Y V ",
"V Y Y V P V P P P P V Y Y Y P P     @ u u u u u u u e 7 , 7 7 7 7 7 7 7 7 e u u u u u u u u u u       Y Y V P P P P V P V Y Y V ",
"V Y Y V P V P P P P P V Y Y P Y     @ u u u u u u u r 7 7 7 7 7 7 7 7 7 7 r u u u u u u u u u u       Y V P P P P P V P V Y Y V ",
"V Y Y V P V P P P P P P V V P Y     @ u u u u u u u r 7 7 f Z Z Z Z Z Z Z A S S w w e u u u u u       V P P P P P P V P V Y Y V ",
"V Y Y V P V P P P P P P P P V Y     @ u u u u u u u r 7 7 Z K K K K K K K K K K 7 7 w u u u u u       P P P P P P P V P V Y Y V ",
"V Y Y V P V P P P P P P P P V V     @ u u u u u u u r 7 7 Z K K K K K K K K K K 7 7 w u u u u u       P P P P P P P V P V Y Y V ",
"V Y Y V P V P P P P P P P P P P     @ u u u u u , 7 s K K K K K K K K K K K K K K K Z 7 7 r u u       P P P P P P P V P V Y Y V ",
"V Y Y V P V P P P P P P P P P P     @ u u u u u 7 7 s K K K K K K K K K K K K K K K Z 7 7 r u u       P P P P P P P V P V Y Y V ",
"V Y Y V P V P P P P P P V V V V     + r r u u u s s d N N J R R R R R R R F N N K K Z 7 7 , > >     V V P P P P P P V P V Y Y V ",
"V Y Y V P V P P P P P V P P P P     o 7 7 r u u K K N & & L ..............a & & K K Z 7 7 o     P P P P V P P P P P V P V Y Y V ",
"V Y Y V P V P P P P V P P V V V     o 7 7 r u u K K N & & L ..............a & & K K Z 7 7 o     V V V P P V P P P P V P V Y Y V ",
"V Y Y V P V P P P P V P V Y Y Y Y Y . o o 8 u u W W G & & L ..............a & & W W E I I 4     Y Y Y V P V P P P P V P V Y Y V ",
"V Y Y V P V P P P P V P V Y Y Y Y Y Y     > u u ....L & & L ..............a & & ..........p     Y Y Y V P V P P P P V P V Y Y V ",
"V Y Y V P V P P P P V P V Y Y V Y Y Y     > u u ....L & & L ..............a & & ..........p     V Y Y V P V P P P P V P V Y Y V ",
"V Y Y V P V P P P P V P V Y Y V Y Y Y     g K K ....................................W K K 1     V Y Y V P V P P P P V P V Y Y V ",
"V Y Y V P V P P P P V P V Y Y Y Y Y Y     g K K ....................................W K K 1     Y Y Y V P V P P P P V P V Y Y V ",
"V Y Y V P V P P P P V P V Y Y Y Y Y Y     i g g W W } ..........................W W T g g <     Y Y Y V P V P P P P V P V Y Y V ",
"V Y Y V P V P P P P V P P V V V Y Y Y P Y       K K R ..........................K K g     Y Y Y V V V P P V P P P P V P V Y Y V ",
"V Y Y V P V P P P P P V P P P P Y Y Y P Y       K K R ..........................K K g     Y Y Y P P P P V P P P P P V P V Y Y V ",
"V Y Y V P V P P P P P P V V V V Y Y Y P Y       s s g R R R R R R R R R R R R R s s q     Y Y Y V V V V P P P P P P V P V Y Y V ",
"V Y Y V P V P P P P P P P P P P Y Y Y P Y       7 7 d K K K K K K K K K K K K K 7 7 =     Y Y Y P P P P P P P P P P V P V Y Y V ",
"V Y Y V P V P P P P P P P P P P Y Y Y P Y       7 7 s K K K K K K K K K K K K K 7 7 =     Y Y Y P P P P P P P P P P V P V Y Y V ",
"V Y Y V P V P P P P P P P P V V Y Y Y Y P       7 7 w u u C _ _ _ _ _ _ _ n u u 7 7 =     Y Y Y V V P P P P P P P P V P V Y Y V ",
"V Y Y V P V P P P P P P P P V Y Y Y Y Y P       , , w u u C _ _ _ _ _ _ _ n u u 7 7 =     Y Y Y Y V P P P P P P P P V P V Y Y V ",
"V Y Y V P V P P P P P P V V P Y Y Y Y Y Y       q e e u u C _ _ | | | | | M u u w w ;     Y Y Y Y P V V P P P P P P V P V Y Y V ",
"V Y Y V P V P P P P P V Y Y P Y Y Y Y Y Y       u u u u u C _ _  . . . . .B u u u u >     Y Y Y Y P Y Y V P P P P P V P V Y Y V ",
"V Y Y V P V P P P P V Y Y Y P P Y Y Y Y Y       s u t u u C _ _  . . . . .B u u u u >     Y Y Y P P Y Y Y V P P P P V P V Y Y V ",
"V Y Y V P V P P P P V Y Y P Y Y Y Y Y     m H H U T D u u ! ` ` ' ' ' ' ' b u u U U I H H 5     Y Y P Y Y V P P P P V P V Y Y V ",
"V Y Y V P V P P V V P P P Y Y Y Y Y Y     H ........T u u ! ) ) ) ) ) ) ) v u u ..........p     Y Y Y P P P V V P P V P V Y Y V ",
"V Y Y V P V P P V Y Y Y P Y Y Y Y Y Y     H ........T u u ! ) ) ) ) ) ) ) v u u ..........p     Y Y Y P Y Y Y V P P V P V Y Y V ",
"V Y Y V P V P P P P V P V Y Y Y Y Y Y     H ........{ ) ) ) ) ) Q Q ~ ) ) ) ) ) ..........p     Y Y Y P Y Y Y V P P V P V Y Y V ",
"V Y Y V P V V V V V V P V Y Y Y Y Y Y     H ........{ ) ) ) ) ) Q Q ~ ) ) ) ) ) ..........p     Y Y Y V P V V V V V V P V Y Y V ",
"V Y Y V P V P P P P V P P V Y Y Y Y P X X c H H { { ] ) ) / ^ / h h l ^ ^ ( ) ) { { [ H H 3 X X Y Y V P P V P P P P V P V Y Y V ",
"V Y Y V P V P P P P P V P P V V P P Y % % X     ) ) ) ) ) ~ Q Q     2 Q Q ^ ) ) ) ) x     # % % V V P P V P P P P P V P V Y Y V ",
"V Y Y V P V V V P P P P V P P P Y P Y % % X     ) ) ) ) ) ~ Q Q     2 Q Q ^ ) ) ) ) x     # % % P P P V P P P P V V V P V Y Y V ",
"V Y Y V P V P P V P P P P V V V % % % % % X     k k z v v 6 2 2 # # $ 2 2 j v v k k 6     # % % % % V P P P P V P P V P V Y Y V ",
"V Y Y V P V P P V P P P P P V P % % % % % X     7 7 w u u @     % % #     > u u 7 7 =     # % % % % % P P P P V P P V P V Y Y V ",
"V Y Y V P V P P P V V P P P V P % % % % % X     7 7 w u u @     % % #     > u u 7 7 =     # % % % % % P P V V P P P V P V Y Y V ",
"V Y Y P V V V P P P P V P P V P % % % % % % % % % % % % % % % % % % % % % % % % % % % % % % % % % % % P V P P P P V V V P Y Y V ",
"V Y P Y Y Y V V P P P V P P V P % % % % % % % % % % % % % % % % % % % % % % % % % % % % % % % % % % % P V P P P V V Y Y Y P Y V ",
"V P Y Y Y Y Y V V V V V V V V V % % % % % % % % % % % % % % % % % % % % % % % % % % % % % % % % % % V V V V V V V Y Y Y Y Y P V ",
"V Y Y Y Y Y Y V P P P P P P P P P P P % % % % % % % % % % % % % % % % % % % % % % % % % % % % % P P P P P P P P V Y Y Y Y Y Y V ",
"V Y Y Y Y Y Y P V V V V V V V V V V V % % % % % % % % % % % % % % % % % % % % % % % % % % % % % V V V V V V V V P Y Y Y Y Y Y V ",
"V Y Y Y Y Y P Y Y Y Y Y Y Y Y Y Y Y Y Y Y Y Y Y Y Y Y Y Y Y Y Y Y Y Y Y Y Y Y Y Y Y Y Y Y Y Y Y Y Y Y Y Y Y Y Y Y P Y Y Y Y Y V ",
"V Y Y Y Y P Y Y Y Y Y Y Y Y Y Y Y Y Y Y Y Y Y Y Y Y Y Y Y Y Y Y Y Y Y Y Y Y Y Y Y Y Y Y Y Y Y Y Y Y Y Y Y Y Y Y Y Y P Y Y Y Y V ",
"V V V V V V V V V V V V V V V V V V V V V V V V V V V V V V V V V V V V V V V V V V V V V V V V V V V V V V V V V V V V V V V V "
};
