/* XPM */
static char *player_up[] = {
/* columns rows colors chars-per-pixel */
"64 64 60 1 ",
"  c black",
". c #040508",
"X c #120B07",
"o c #150D08",
"O c #1D130C",
"+ c #080911",
"@ c #090E1A",
"# c #0C0E19",
"$ c #24160D",
"% c #26180E",
"& c #2B1A0F",
"* c #271A10",
"= c #291E1A",
"- c #352215",
"; c #392314",
": c #3A2717",
"> c #31231B",
", c #39291F",
"< c #0A162E",
"1 c #181F33",
"2 c #232029",
"3 c #262838",
"4 c #34303D",
"5 c #402717",
"6 c #432918",
"7 c #452B1A",
"8 c #442D1B",
"9 c #482D1B",
"0 c #4A2F1C",
"q c #4C301F",
"w c #4D321E",
"e c #4F341F",
"r c #4D3524",
"t c #4E382C",
"y c #523620",
"u c #543822",
"i c #573A23",
"p c #563A27",
"a c #583A27",
"s c #563D2E",
"d c #563E2F",
"f c #64432E",
"g c #694834",
"h c #735036",
"j c #73523E",
"k c #132D5C",
"l c #1A3C75",
"z c #3A4871",
"x c #4D567B",
"c c #865E43",
"v c #885F46",
"b c #94684D",
"n c #A07255",
"m c #AC7B5D",
"M c #1D438A",
"N c #204B94",
"B c #224E98",
"V c #275AA7",
"C c #2C65B5",
"Z c None",
/* pixels */
"ZZZZZZZZZZZZZZZZZZZZZZZZZZZZZZZZZZZZZZZZZZZZZZZZZZZZZZZZZZZZZZZZ",
"ZZZZZZZZZZZZZZZZZZZZZZZZZZZZZZZZZZZZZZZZZZZZZZZZZZZZZZZZZZZZZZZZ",
"ZZZZZZZZZZZZZZZZZZZZZZZZZZZZZZZZZZZZZZZZZZZZZZZZZZZZZZZZZZZZZZZZ",
"ZZZZZZZZZZZZZZZZZZZZZZZZZZZZZZZZZZZZZZZZZZZZZZZZZZZZZZZZZZZZZZZZ",
"ZZZZZZZZZZZZZZZZZZZZZZZZZZZZZZZZZZZZZZZZZZZZZZZZZZZZZZZZZZZZZZZZ",
"ZZZZZZZZZZZZZZZZZZZZZZZZZZZ     ZZZ          ZZZZZZZZZZZZZZZZZZZ",
"ZZZZZZZZZZZZZZZZZZZZZZZZZZZ     ZZZ          ZZZZZZZZZZZZZZZZZZZ",
"ZZZZZZZZZZZZZZZZZZZZZZZZZZZ     ZZZ          ZZZZZZZZZZZZZZZZZZZ",
"ZZZZZZZZZZZZZZZZZZZZZ        :ii  o55eiiii:  ZZZZZZZZZZZZZZZZZZZ",
"ZZZZZZZZZZZZZZZZZZZZZ        :ii  o55eiiii:  ZZZZZZZZZZZZZZZZZZZ",
"ZZZZZZZZZZZZZZZZZZZZZXooOOOOO8iioo%99yii::*  ZZZZZZZZZZZZZZZZZZZ",
"ZZZZZZZZZZZZZZZZZZZ  &55iiiiiiii559iiiii     ZZZZZZZZZZZZZZZZZZZ",
"ZZZZZZZZZZZZZZZZZZZ  &55iiiiiiii559iiiii     ZZZZZZZZZZZZZZZZZZZ",
"ZZZZZZZZZZZZZZZZZZZ  -eeiiiiiiiieeyiiiii::-&&X  ZZZZZZZZZZZZZZZZ",
"ZZZZZZZZZZZZZZZZZZZ  :iiiiiiiiiiiiiiiiiiiie55o  ZZZZZZZZZZZZZZZZ",
"ZZZZZZZZZZZZZZZZZZZ  :iiiiiiiiiiiiiiiiiiiie55o  ZZZZZZZZZZZZZZZZ",
"ZZZZZZZZZZZZZZZZ  o55eiiiiiiiiiiiiiiiiiiiiiii955   ZZZZZZZZZZZZZ",
"ZZZZZZZZZZZZZZZZ  o55eiiiiiiiiiiiiiiiiiiiiiii955   ZZZZZZZZZZZZZ",
"ZZZZZZZZZZZZZZZZ  o55eiiiiiiiiiiiiiiiiiiiiiii955   ZZZZZZZZZZZZZ",
"ZZZZZZZZZZZZZZZZ  o55eiiiiiiiiiiiiiiiiiiiiiii955   ZZZZZZZZZZZZZ",
"ZZZZZZZZZZZZZZZZ  o55eiiiiiiiiiiiiiiiiiiiiiii955   ZZZZZZZZZZZZZ",
"ZZZZZZZZZZZZZZZZ  o55eiiiiiiiiiiiiiiiiiiiiiii955   ZZZZZZZZZZZZZ",
"ZZZZZZZZZZZZZZZZ  o55eiiiiiiiiiiiiiiiiiiiiiii955   ZZZZZZZZZZZZZ",
"ZZZZZZZZZZZZZZZZ  o55eiiiiiiiiiiiiiiiiiiiiiii955   ZZZZZZZZZZZZZ",
"ZZZZZZZZZZZZZZZZ  o55555iiiiiiiiiiiiiiiiiie55555   ZZZZZZZZZZZZZ",
"ZZZZZZZZZZZZZZZZ  o55555iiiiiiiiiiiiiiiiiie55555   ZZZZZZZZZZZZZ",
"ZZZZZZZZZZZZZZZZ  X&&;55eeeeeiiiiiiiiyeeee055555   ZZZZZZZZZZZZZ",
"ZZZZZZZZZZZZZZZZZZZ  &5555555eiiiiiii95555555555   ZZZZZZZZZZZZZ",
"ZZZZZZZZZZZZZZZZZZZ  &5555555eiiiiiii95555555555   ZZZZZZZZZZZZZ",
"ZZZZZZZZZZZZZZZZZZZ  &55555557999999965555555$ooZZZZZZZZZZZZZZZZ",
"ZZZZZZZZZZZZZZZZZZZ  &55555555555555555555555o  ZZZZZZZZZZZZZZZZ",
"ZZZZZZZZZZZZZZZZZZZ  &55555555555555555555555o  ZZZZZZZZZZZZZZZZ",
"ZZZZZZZZZZZZZZZZZZZ  jmm555555555555555555fmm,  ZZZZZZZZZZZZZZZZ",
"ZZZZZZZZZZZZZZZZZZZ  jmm555555555555555555fmm,  ZZZZZZZZZZZZZZZZ",
"ZZZZZZZZZZZZZZZZZZZ  sjjfffffw5555555affffgjj>  ZZZZZZZZZZZZZZZZ",
"ZZZZZZZZZZZZZZZZZZZZZ   mmmmmf5555555vmmmmj  ZZZZZZZZZZZZZZZZZZZ",
"ZZZZZZZZZZZZZZZZZZZZZ   mmmmmf5555555vmmmmj  ZZZZZZZZZZZZZZZZZZZ",
"ZZZZZZZZZZZZZZZZZZZZZ   hhcmmbvvvvvvvnmmhhr  ZZZZZZZZZZZZZZZZZZZ",
"ZZZZZZZZZZZZZZZZZZZZZ   iihmmmmmmmmmmmmmii:  ZZZZZZZZZZZZZZZZZZZ",
"ZZZZZZZZZZZZZZZZZZZZZ   iphmmmmmmmmmmmmmii:  ZZZZZZZZZZZZZZZZZZZ",
"ZZZZZZZZZZZZZZZZZZZZZ   iiiiiiiiiiiiiiiiii:  ZZZZZZZZZZZZZZZZZZZ",
"ZZZZZZZZZZZZZZZZZZZZZ   iiiiiiiiiiiiiiiiii:  ZZZZZZZZZZZZZZZZZZZ",
"ZZZZZZZZZZZZZZZZZZZZZ   iiiiiiiiiiiiiiiiii:  ZZZZZZZZZZZZZZZZZZZ",
"ZZZZZZZZZZZZZZZZZZZZZ   iiiiiiiiiiiiiiiiii:  ZZZZZZZZZZZZZZZZZZZ",
"ZZZZZZZZZZZZZZZZZZZZZ   iiiiiiiiiiiiiiiiii:  ZZZZZZZZZZZZZZZZZZZ",
"ZZZZZZZZZZZZZZZZZZZ  sjj99wiiiiiiiiiiiii99pjj>  ZZZZZZZZZZZZZZZZ",
"ZZZZZZZZZZZZZZZZZZZ  jmm559iiiiiiiiiiiii55fmm,  ZZZZZZZZZZZZZZZZ",
"ZZZZZZZZZZZZZZZZZZZ  jmm559iiiiiiiiiiiii55fmm,  ZZZZZZZZZZZZZZZZ",
"ZZZZZZZZZZZZZZZZZZZ  jmmMMBCCCCCMMBCCCCCMMxmm,  ZZZZZZZZZZZZZZZZ",
"ZZZZZZZZZZZZZZZZZZZ  jmmMMBCCCCCMMBCCCCCMMxmm,  ZZZZZZZZZZZZZZZZ",
"ZZZZZZZZZZZZZZZZZZZ..tjjMMNVVVVVkklVVVVVMMzjj=..ZZZZZZZZZZZZZZZZ",
"ZZZZZZZZZZZZZZZZZZZ##.  MMMMMMMM  <MMMMMMMk  +##ZZZZZZZZZZZZZZZZ",
"ZZZZZZZZZZZZZZZZZZZ##.  MMMMMMMM  <MMMMMMMk  +##ZZZZZZZZZZZZZZZZ",
"ZZZZZZZZZZZZZZZZ#####.  444441<<++@<<344442  +####ZZZZZZZZZZZZZZ",
"ZZZZZZZZZZZZZZZZ#####.  55555o  ##+  &5555&  +#####ZZZZZZZZZZZZZ",
"ZZZZZZZZZZZZZZZZ#####.  55555o  ##+  &5555&  +#####ZZZZZZZZZZZZZ",
"ZZZZZZZZZZZZZZZZ###################################ZZZZZZZZZZZZZ",
"ZZZZZZZZZZZZZZZZ###################################ZZZZZZZZZZZZZ",
"ZZZZZZZZZZZZZZZZ##################################ZZZZZZZZZZZZZZ",
"ZZZZZZZZZZZZZZZZZZZ#############################ZZZZZZZZZZZZZZZZ",
"ZZZZZZZZZZZZZZZZZZZ#############################ZZZZZZZZZZZZZZZZ",
"ZZZZZZZZZZZZZZZZZZZZZZZZZZZZZZZZZZZZZZZZZZZZZZZZZZZZZZZZZZZZZZZZ",
"ZZZZZZZZZZZZZZZZZZZZZZZZZZZZZZZZZZZZZZZZZZZZZZZZZZZZZZZZZZZZZZZZ",
"ZZZZZZZZZZZZZZZZZZZZZZZZZZZZZZZZZZZZZZZZZZZZZZZZZZZZZZZZZZZZZZZZ"
};
