/* XPM */
static char *_7050285ab33440ad409eeb0bf00232dTUAjimmjduZ3h6KP[] = {
/* columns rows colors chars-per-pixel */
"64 64 84 1 ",
"  c black",
". c #030306",
"X c #0B0604",
"o c #040508",
"O c #120B07",
"+ c #150D08",
"@ c #1A110A",
"# c #1D130C",
"$ c #080911",
"% c #0B0C16",
"& c #0C0E19",
"* c #20130B",
"= c #21110D",
"- c #2B1A0F",
"; c #271A10",
": c #291E1A",
"> c #352215",
", c #392314",
"< c #3A2717",
"1 c #31231B",
"2 c #39291F",
"3 c #0A162E",
"4 c #0F223C",
"5 c #1A2338",
"6 c #3E342A",
"7 c #34303D",
"8 c #402717",
"9 c #432918",
"0 c #432D1F",
"q c #482D1B",
"w c #4D321E",
"e c #4F341F",
"r c #462F20",
"t c #523620",
"y c #513524",
"u c #573A23",
"i c #5D3E29",
"p c #403930",
"a c #64432E",
"s c #6D4A35",
"d c #704C36",
"f c #73523E",
"g c #78533A",
"h c #222F44",
"j c #3B3845",
"k c #393C4C",
"l c #574E42",
"z c #444451",
"x c #494854",
"c c #615648",
"v c #7E5842",
"b c #5F7160",
"n c #74737A",
"m c #885F46",
"M c #90654A",
"N c #94684D",
"B c #816850",
"V c #8A6B53",
"C c #876D59",
"Z c #81735F",
"A c #A07255",
"S c #A17A5F",
"D c #AC7B5D",
"F c #8C7864",
"G c #778570",
"H c #968067",
"J c #9E866B",
"K c #8D977F",
"L c #B38B6E",
"P c #B59173",
"I c #BA9C7E",
"U c #1D438A",
"Y c #224E98",
"T c #275AA7",
"R c #295DAB",
"E c #2C65B5",
"W c #787E97",
"Q c #8A898D",
"! c #82879E",
"~ c #BFA789",
"^ c #878CA1",
"/ c #959AAB",
"( c #A4A8B5",
") c #C1AC8F",
/* pixels */
"bbbbbbbbbbbbbbbbbbbbbbbbbbbbbbbbbbbbbbbbbbbbbbbbbbbbbbbbbbbbbbbb",
"bKKKKGKKKKKKKKKKKKKKKKKKKKKKKKKKKKKKKKKKKKKKKKKKKKKKKKKKKKGKKKKb",
"bKKKKKGKKKKKKKKKKKKKKKKKKKKKKKKKKKKKKKKKKKKKKKKKKKKKKKKKKGKKKKKb",
"bKKKKKKGbbbbbbbbbbbbbbbbbbbbbbbbbbbbbbbbbbbbbbbbbbbbbbbbGKKKKKKb",
"bKKKKKKbGGGGGGGGGGGGGGGGGGGGGGGGGGGGGGGGGGGGGGGGGGGGGGGGbKKKKKKb",
"bGKKKKKbbbbbbbbbbbb          bbb     bbbbbbbbbbbbbbbbbbbbKKKKKGb",
"bKGKKKbbGGGbGGbGGGG          GGG     GGGGGGGGGGGGbGGbGGGbbKKKGKb",
"bKKGbbbGGGGbGGbGGGG          GGG     GGGGGGGGGGGGbGGbGGGGbbbGKKb",
"bKKbGbGGGbbGGGbGbbG  <uuuue88+  uu<        GGGbbGbGGGbbGGGbGbKKb",
"bKKbGbGGbGGGGGbGKbG  <uuuue<8+  uu<        GGGbKGbGGGGGbGGbGbKKb",
"bKKbGbGGbGGGGbbbKGb  ;<<uutqq-++uu9++@####@GbbGKbbbGGGGbGGbGbKKb",
"bKKbGbbbGGGGbGGGKGK     uuuuuq88uue98euuuu<  KGKGGGbGGGGbbbGbKKb",
"bKKbGbGGGGGbGGbbGGK     uuuuuq88uuw<<tuuuu<  KGGbbGGbGGGGGbGbKKb",
"bKKbGbGGGGbGGbKK  +--><<uuuuuteeuuueeuuuuuw<<@  KKbGGbGGGGbGbKKb",
"bKKbGbbbbbbGbKKK  +88euuuuuuuuuuuuuuuuuuuuuuu#  KKKbGbbbbbbGbKKb",
"bKKbGbGGGGbGbKKK  +88euuuuuuuuuuuuuuuuuuuuuuu#  KKKbGbGGGGbGbKKb",
"bKKbGbGGbKKKG   88quuuuuuuuuuuuuuuuuuuuuuuuuuuuu   GKKKbGGbGbKKb",
"bKKbGbGGbbGGG   88quuuuuuuuuuuuuuuuuuuuuuuuuuuuu   GGGbbGGbGbKKb",
"bKKbGbGGGGbKK   88quuuuueetuuuuuuuueeeeeuuuuuuuu   KKbGGGGbGbKKb",
"bKKbGbGGGGbKK   88quuuuu88quuuuuuue88888uuuuuuuu   KKbGGGGbGbKKb",
"bKKbGbGGGGGbK   88quuuuu88quuuuuuue88888uuuuuuuu   KbGGGGGbGbKKb",
"bKKbGbGGGGGGb   889qqqqq88quuuuuuue88dmmMMgqqtuu-;*  GGGGGbGbKKb",
"bKKbGbGGGGGGG   8888888888quuuuuuue88mDDDDm88euu98-  GGGGGbGbKKb",
"bKKbGbGGGGGGG   888888888<quuuuuuue88mDDDDm8<tuu88-  GGGGGbGbKKb",
"bKKbGbGGGGGGG   88quuq8888quuuuu88aDDDDDDDDDDa8888-  GGGGGbGbKKb",
"bKKbGbGGGGGGG   88quuq8888quuuuu88aDDDDDDDDDDa8888-  GGGGGbGbKKb",
"bKKbGbGGGGGGb   88quuwqqaaieeuuuaasvvSLLLLSvvr--88-  GGGGGbGbKKb",
"bKKbGbGGGGGbG   88quuuuuDDm88euuDDm@=F))))F==X  88-  GGGGGbGbKKb",
"bKKbGbGGGGbGG   88quuuuuDDm88euuDDv==F))))F==X  88-  bGGGGbGbKKb",
"bKKbGbGGGGbGb   889qqtuuDDAmmiqqIIC==F))))F==X  ++ObGbGGGGbGbKKb",
"bKKbGbGGGGbGb   88888euuDDDDDa88))F==F))))F==X     bGbGGGGbGbKKb",
"bKKbGbGGGGbGb   88888euuDDDDDa88))F==F))))F==X     bGbGGGGbGbKKb",
"bKKbGbGGGGbGbKKb  +88888DDDDDI)))))))))))))))6  bKKbGbGGGGbGbKKb",
"bKKbGbGGGGbGbKKK  +88888DDDDDI)))))))))))))))p  KKKbGbGGGGbGbKKb",
"bKKbGbGGGGbGbKKK  +--,88mmNDDPII))))))))))~I~6  KKKbGbGGGGbGbKKb",
"bKKbGbGGGGbGGbbbKKK  -8888aDDDDD)))))))))~IDD2  bbbGGbGGGGbGbKKb",
"bKKbGbGGGGGbGGGGKKK  ;8888aDDDDD))))))))~)IDD2  GGGGbGGGGGbGbKKb",
"bKKbGbGGGGGGbbbbKKKGK+++88eaaNDDLLLLLLLLLLV<2;KKbbbbGGGGGGbGbKKb",
"bKKbGbGGGGGGGGGGKKKGK   88<88mDDDDDDDDDDDDf  QKKGGGGGGGGGGbGbKKb",
"bKKbGbGGGGGGGGGGKKKGK   88888mDDDDDDDDDDDLf  KKKGGGGGGGGGGbGbKKb",
"bKKbGbGGGGGGGGbbKKKKG   88888euuWWWWWWWW88-  KKKbbGGGGGGGGbGbKKb",
"bKKbGbGGGGGGGGbKKKKKG   88888euuWWWWWWWW88-  KKKKbGGGGGGGGbGbKKb",
"bKKbGbGGGGGGbbGKKKKKK   889qqtuuWWWWW!^!88-  KKKKGbbGGGGGGbGbKKb",
"bKKbGbGGGGGbKKGKKKKKK   88quuuuuWWWWW/((88-  KKKKGKKbGGGGGbGbKKb",
"bKKbGbGGGGbKKKGGKKKKK   88quuuuuWWWWW/((88-  KKKGGKKKbGGGGbGbKKb",
"bKKbGbGGGGbKKGKKKKK  cZZHHBuuuuuWW!//(((88yff1  KKGKKbGGGGbGbKKb",
"bKKbGbGGbbGGGKKKKKK  Z))))JuuuuuWW!(((((88aDD2  KKKGGGbbGGbGbKKb",
"bKKbGbGGbKKKGKKKKKK  Z))))JuuuuuWW^(((((88aDD2  KKKGKKKbGGbGbKKb",
"bKKbGbGGGGbGbKKKKKK  Z))))JuuuuuEEEEEEEE88aDD2  KKKGKKKbGGbGbKKb",
"bKKbGbbbbbbGbKKKKKK  Z))))JuuuuuEEEEEEEE88aDD2  KKKbGbbbbbbGbKKb",
"bKKbGbGGGGbGGbKKKKGoolZZQQnxxxxxTTREEEEE--0ff:ooKKbGGbGGGGbGbKKb",
"bKKbGbGGGGGbGGbbGGK&&o  UUYEEEEEUUYEEEEE     $&&bbGGbGGGGGbGbKKb",
"bKKbGbbbGGGGbGGGKGK&&o  UUYEEEEEUUYEEEEE     $&&GGGbGGGGbbbGbKKb",
"bKKbGbGGbGGGGbbb&&&&&o  77jxxh44335kkzxx  .$$%&&&&bGGGGbGGbGbKKb",
"bKKbGbGGbGGGGGbG&&&&&o  88quu#    +88euu  o&&&&&&&&GGGGbGGbGbKKb",
"bKKbGbGGGbbGGGbG&&&&&o  88quu#    +88euu  o&&&&&&&&GGbbGGGbGbKKb",
"bKKGbbbGGGGbGGbG&&&&&&&&&&&&&&&&&&&&&&&&&&&&&&&&&&&GbGGGGbbbGKKb",
"bKGKKKbbGGGbGGbG&&&&&&&&&&&&&&&&&&&&&&&&&&&&&&&&&&&GbGGGbbKKKGKb",
"bGKKKKKbbbbbbbbb&&&&&&&&&&&&&&&&&&&&&&&&&&&&&&&&&&bbbbbbbKKKKKGb",
"bKKKKKKbGGGGGGGGGGG&&&&&&&&&&&&&&&&&&&&&&&&&&&&&GGGGGGGGbKKKKKKb",
"bKKKKKKGbbbbbbbbbbb&&&&&&&&&&&&&&&&&&&&&&&&&&&&&bbbbbbbbGKKKKKKb",
"bKKKKKGKKKKKKKKKKKKKKKKKKKKKKKKKKKKKKKKKKKKKKKKKKKKKKKKKKGKKKKKb",
"bKKKKGKKKKKKKKKKKKKKKKKKKKKKKKKKKKKKKKKKKKKKKKKKKKKKKKKKKKGKKKKb",
"bbbbbbbbbbbbbbbbbbbbbbbbbbbbbbbbbbbbbbbbbbbbbbbbbbbbbbbbbbbbbbbb"
};
