/* XPM */
static char *c4f9a14ec9b94ccbeb3c982a775d80feU2WisIPIrsUMmDwA[] = {
/* columns rows colors chars-per-pixel */
"64 64 87 1 ",
"  c black",
". c #030306",
"X c #0B0604",
"o c #040508",
"O c #120B07",
"+ c #150D08",
"@ c #1A110A",
"# c #1D130C",
"$ c #080911",
"% c #0B0C16",
"& c #0C0E19",
"* c #21110D",
"= c #20140C",
"- c #26180E",
"; c #2B1A0F",
": c #221913",
"> c #271A10",
", c #291E1A",
"< c #352215",
"1 c #3A2717",
"2 c #31231B",
"3 c #39291F",
"4 c #0A162E",
"5 c #0F223C",
"6 c #1A2338",
"7 c #3E342A",
"8 c #34303D",
"9 c #402717",
"0 c #432918",
"q c #412B1A",
"w c #432D1F",
"e c #482D1B",
"r c #4D321E",
"t c #4F341F",
"y c #462F20",
"u c #523620",
"i c #513524",
"p c #543822",
"a c #573A23",
"s c #5D3E29",
"d c #403930",
"f c #64432E",
"g c #6D4A35",
"h c #704C36",
"j c #73523E",
"k c #78533A",
"l c #222F44",
"z c #3B3845",
"x c #393C4C",
"c c #574E42",
"v c #444451",
"b c #494854",
"n c #615648",
"m c #7E5842",
"M c #5F7160",
"N c #74737A",
"B c #885F46",
"V c #90654A",
"C c #94684D",
"Z c #816850",
"A c #8A6B53",
"S c #876D59",
"D c #81735F",
"F c #A07255",
"G c #A17A5F",
"H c #AC7B5D",
"J c #8C7864",
"K c #778570",
"L c #9E866B",
"P c #8D977F",
"I c #B38B6E",
"U c #B59173",
"Y c #BA9C7E",
"T c #1D438A",
"R c #224E98",
"E c #275AA7",
"W c #295DAB",
"Q c #2C65B5",
"! c #787E97",
"~ c #8A898D",
"^ c #82879E",
"/ c #BFA789",
"( c #878CA1",
") c #959AAB",
"_ c #9FA3B2",
"` c #A4A8B5",
"' c #C1AC8F",
/* pixels */
"MMMMMMMMMMMMMMMMMMMMMMMMMMMMMMMMMMMMMMMMMMMMMMMMMMMMMMMMMMMMMMMM",
"MPPPPKPPPPPPPPPPPPPPPPPPPPPPPPPPPPPPPPPPPPPPPPPPPPPPPPPPPPKPPPPM",
"MPPPPPKPPPPPPPPPPPPPPPPPPPPPPPPPPPPPPPPPPPPPPPPPPPPPPPPPPKPPPPPM",
"MPPPPPPKMMMMMMMMMMMMMMMMMMMMMMMMMMMMMMMMMMMMMMMMMMMMMMMMKPPPPPPM",
"MPPPPPPMKKKKKKKKKKKKKKKKKKKKKKKKKKKKKKKKKKKKKKKKKKKKKKKKMPPPPPPM",
"MKPPPPPMMMMMMMMMMMMMMMMMMMM     MMM          MMMMMMMMMMMMPPPPPKM",
"MPKPPPMMKKKMKKMKKKKKKKKKKKK     KKK          KKKKMKKMKKKMMPPPKPM",
"MPPKMMMKKKKMKKMKKKKKKKKKKKK     KKK          KKKKMKKMKKKKMMMKPPM",
"MPPMKMKKKMMKKKMKMMKKK        1aa  +99taaaa1  KMMKMKKKMMKKKMKMPPM",
"MPPMKMKKMKKKKKMKPMKKK        1aa  +99taaaa1  KMPKMKKKKKMKKMKMPPM",
"MPPMKMKKMKKKKMMMPKMMK@####@++qaa++-eeuaa11>  MKPMMMKKKKMKKMKMPPM",
"MPPMKMMMKKKKMKKKPKP  1aaaat99taa99eaaaaa     PKPKKKMKKKKMMMKMPPM",
"MPPMKMKKKKKMKKMMKKP  1aaaat99taa99eaaaaa     PKKMMKKMKKKKKMKMPPM",
"MPPMKMKKKKMKKMPP  @11raaaaattuaattuaaaaa11<;;O  PPMKKMKKKKMKMPPM",
"MPPMKMMMMMMKMPPP  #aaaaaaaaaaaaaaaaaaaaaaat99+  PPPMKMMMMMMKMPPM",
"MPPMKMKKKKMKMPPP  #aaaaaaaaaaaaaaaaaaaaaaat99+  PPPMKMKKKKMKMPPM",
"MPPMKMKKMPPPK   aaaaaaaaaaaaaaaaaaaaaaaaaaaaae99   KPPPMKKMKMPPM",
"MPPMKMKKMMKKK   aaaaaaaaaaaaaaaaaaaaaaaaaaaaae99   KKKMMKKMKMPPM",
"MPPMKMKKKKMPP   aaaaaaaatttttaaaaaaaauttaaaaae99   PPMKKKKMKMPPM",
"MPPMKMKKKKMPP   aaaaaaaa99999taaaaaaae99aaaaae99   PPMKKKKMKMPPM",
"MPPMKMKKKKKMP   aaaaaaaa99999taaaaaaae99aaaaae99   PMKKKKKMKMPPM",
"MPPMKMKKKKK  =;;aaueekVVBBh99taaaaaaae99eeeeeq99   MKKKKKKMKMPPM",
"MPPMKMKKKKK  ;99aat99BHHHHB99taaaaaaae9999999999   KKKKKKKMKMPPM",
"MPPMKMKKKKK  ;99aat99BHHHHB99taaaaaaae9999999999   KKKKKKKMKMPPM",
"MPPMKMKKKKK  ;9999fHHHHHHHHHHf99aaaaae9999eaae99   KKKKKKKMKMPPM",
"MPPMKMKKKKK  ;9999fHHHHHHHHHHf99aaaaae9999eaae99   KKKKKKKMKMPPM",
"MPPMKMKKKKK  ;99;;ymmGIIIIGmmgffaaautsffeeraae99   MKKKKKKMKMPPM",
"MPPMKMKKKKK  ;99  X**J''''J**mHHaar19BHHaaaaae99   KMKKKKKMKMPPM",
"MPPMKMKKKKM  ;99  X**J''''J**mHHaat99BHHaaaaae99   KKMKKKKMKMPPM",
"MPPMKMKKKKMKMO++  X**J''''J**SYYeesBBFHHaaueeq99   MKMKKKKMKMPPM",
"MPPMKMKKKKMKM     X**J''''J**J''99fHHHHHaat99999   MKMKKKKMKMPPM",
"MPPMKMKKKKMKM     X**J''''J**J''99fHHHHHaat99999   MKMKKKKMKMPPM",
"MPPMKMKKKKMKMPPM  d'''''''''''''''YHHHHH99999+  MPPMKMKKKKMKMPPM",
"MPPMKMKKKKMKMPPP  d'''''''''''''''YHHHHH99999+  PPPMKMKKKKMKMPPM",
"MPPMKMKKKKMKMPPP  7YY'''''''''''YYUHHCBB991;;O  PPPMKMKKKKMKMPPM",
"MPPMKMKKKKMKKMMM  3HHY''''''''''HHHHHf9999;  PPPMMMKKMKKKKMKMPPM",
"MPPMKMKKKKKMKKKK  3HHY''''''''''HHHHHfq999;  PPPKKKKMKKKKKMKMPPM",
"MPPMKMKKKKKKMMMMPP:33AIIIIIIIIIIHHCffe99++OPKPPPMMMMKKKKKKMKMPPM",
"MPPMKMKKKKKKKKKKPPP  jHHHHHHHHHHHHB99999   PKPPPKKKKKKKKKKMKMPPM",
"MPPMKMKKKKKKKKKKPPP  jHHHHHHHHHHHHB99999   PKPPPKKKKKKKKKKMKMPPM",
"MPPMKMKKKKKKKKMMPPP  ;99!!!!!!!!aat99999   KPPPPMMKKKKKKKKMKMPPM",
"MPPMKMKKKKKKKKMPPPP  ;99!!!!!!!!aat99999   KPPPPPMKKKKKKKKMKMPPM",
"MPPMKMKKKKKKMMKPPPP  ;99^(^!!!!!aapeeq90   PPPPPPKMMKKKKKKMKMPPM",
"MPPMKMKKKKKMPPKPPPP  ;99``)!!!!!aaaaae9q   PPPPPPKPPMKKKKKMKMPPM",
"MPPMKMKKKKMPPPKKPPP  ;99``)!!!!!aaaaaeq1   PPPPPKKPPPMKKKKMKMPPM",
"MPPMKMKKKKMPPKPP  2jji99```))^!!aaaaaZJGNJn  PPPPPKPPMKKKKMKMPPM",
"MPPMKMKKMMKKKPPP  3HHf99`````(!!aaaaaL''''S  PPPPPPKKKMMKKMKMPPM",
"MPPMKMKKMPPPKPPP  3HHf99`````(!!aaaaaL''''D  PPPPPPKPPPMKKMKMPPM",
"MPPMKMKKKKMKMPPP  3HHf99QQQQQQQQaaaaaL''''D  PPPPPPKPPPMKKMKMPPM",
"MPPMKMMMMMMKMPPP  3HHf99QQQQQQQQaaaaaL''''D  PPPPPPMKMMMMMMKMPPM",
"MPPMKMKKKKMKKMPPoo,jjw;;QQQQQWEEbbbbbN~~DDcooKPPPPMKKMKKKKMKMPPM",
"MPPMKMKKKKKMKKMM&&$     QQQQQRTTQQQQQRTT  o&&PKKMMKKMKKKKKMKMPPM",
"MPPMKMMMKKKKMKKK&&$     QQQQQRTTQQQQQRTT  o&&PKPKKKMKKKKMMMKMPPM",
"MPPMKMKKMKKKKM&&&&%$$.  bbvxx64455lbbz88  o&&&&&MMMKKKKMKKMKMPPM",
"MPPMKMKKMKKKK&&&&&&&&o  aat99+    #aae99  o&&&&&KMKKKKKMKKMKMPPM",
"MPPMKMKKKMMKK&&&&&&&&o  aat99+    #aae99  o&&&&&KMKKKMMKKKMKMPPM",
"MPPKMMMKKKKMK&&&&&&&&&&&&&&&&&&&&&&&&&&&&&&&&&&&KMKKMKKKKMMMKPPM",
"MPKPPPMMKKKMK&&&&&&&&&&&&&&&&&&&&&&&&&&&&&&&&&&&KMKKMKKKMMPPPKPM",
"MKPPPPPMMMMMMM&&&&&&&&&&&&&&&&&&&&&&&&&&&&&&&&&&MMMMMMMMMPPPPPKM",
"MPPPPPPMKKKKKKKK&&&&&&&&&&&&&&&&&&&&&&&&&&&&&KKKKKKKKKKKMPPPPPPM",
"MPPPPPPKMMMMMMMM&&&&&&&&&&&&&&&&&&&&&&&&&&&&&MMMMMMMMMMMKPPPPPPM",
"MPPPPPKPPPPPPPPPPPPPPPPPPPPPPPPPPPPPPPPPPPPPPPPPPPPPPPPPPKPPPPPM",
"MPPPPKPPPPPPPPPPPPPPPPPPPPPPPPPPPPPPPPPPPPPPPPPPPPPPPPPPPPKPPPPM",
"MMMMMMMMMMMMMMMMMMMMMMMMMMMMMMMMMMMMMMMMMMMMMMMMMMMMMMMMMMMMMMMM"
};
