/* XPM */
static char *wall[] = {
/* columns rows colors chars-per-pixel */
"64 64 6 1 ",
"  c #141B1B",
". c #46402E",
"X c #56634D",
"o c #5F7160",
"O c #778570",
"+ c #8D977F",
/* pixels */
"oooooooooooooooooooooooooooooooooooooooooooooooooooooooooooooooo",
"o++++O++++++++++++++++++++++++++++++++++++++++++++++++++++O++++o",
"o+++++O++++++++++++++++++++++++++++++++++++++++++++++++++O+++++o",
"o++++++OooooooooooooooooooooooooooooooooooooooooooooooooO++++++o",
"o++++++oOOOOOOOOOOOOOOOOOOOOOOOOOOOOOOOOOOOOOOOOOOOOOOOOo++++++o",
"oO+++++oooooooooooooooooooooooooooooooooooooooooooooooooo+++++Oo",
"o+O+++o                O                O                o+++O+o",
"o++Oooo ++++++++++++++ O ++++++++++++++ O ++++++++++++++ oooO++o",
"o++oOoO ++++++++++++++ O ++++++++++++++ O ++++++++++++++ OoOo++o",
"o++oOoO ++++++++++++++ O ++++++++++++++ O ++++++++++++++ OoOo++o",
"o++oOoO ++++++++++++++ O ++++++++++++++ O ++++++++++++++ OoOo++o",
"o++oOoo ++++++++++++++ O ++++++++++++++ O ++++++++++++++ ooOo++o",
"o++oOoO ++++++++++++++ O ++++++++++++++ O ++++++++++++++ OoOo++o",
"o++oOoO ++++++++++++++ O ++++++++++++++ O ++++++++++++++ OoOo++o",
"o++oOoo ++++++++++++++ o ++++++++++++++ o ++++++++++++++ ooOo++o",
"o++oOoO XXXXXXXXXXXXXX o XXXXXXXXXXXXXX o XXXXXXXXXXXXXX OoOo++o",
"o++oOoO XXXXXX                XXX                XXXXXXX OoOo++o",
"o++oOoO XXXXXX ++++++++++++++ XXX ++++++++++++++ XXXXXXX OoOo++o",
"o++oOoO ...... ++++++++++++++ ... ++++++++++++++ ....... OoOo++o",
"o++oOoOO ..... ++++++++++++++ ... ++++++++++++++ ...... OOoOo++o",
"o++oOoOO X.X.. ++++++++++++++ ... ++++++++++++++ ...X.X OOoOo++o",
"o++oOoOO X.XXX ++++++++++++++ XXX ++++++++++++++ XXXX.X OOoOo++o",
"o++oOoOO X.XXX ++++++++++++++ XXX ++++++++++++++ XXXX.X OOoOo++o",
"o++oOoOO X.XXX ++++++++++++++ XXX ++++++++++++++ XXXX.X OOoOo++o",
"o++oOoOO X.XXX ++++++++++++++ XXX ++++++++++++++ XXXX.X OOoOo++o",
"o++oOoO                X                X                OoOo++o",
"o++oOoO ++++++++++++++ X ++++++++++++++ X ++++++++++++++ OoOo++o",
"o++oOoO ++++++++++++++ X ++++++++++++++ X ++++++++++++++ OoOo++o",
"o++oOoO ++++++++++++++ . ++++++++++++++ . ++++++++++++++ OoOo++o",
"o++oOoO ++++++++++++++ . ++++++++++++++ . ++++++++++++++ OoOo++o",
"o++oOoO ++++++++++++++ . ++++++++++++++ . ++++++++++++++ OoOo++o",
"o++oOoO ++++++++++++++ X ++++++++++++++ X ++++++++++++++ OoOo++o",
"o++oOoO ++++++++++++++ X ++++++++++++++ X ++++++++++++++ OoOo++o",
"o++oOoO ++++++++++++++ X ++++++++++++++ X ++++++++++++++ OoOo++o",
"o++oOoO XXXXXXXXXXXXXX X XXXXXXXXXXXXXX X XXXXXXXXXXXXXX OoOo++o",
"o++oOoO XXXXXXXXXXXXXX X XXXXXXXXXXXXXX X XXXXXXXXXXXXXX OoOo++o",
"o++oOoO XXXXXXXXXXXXXX X XXXXXXXXXXXXXX X XXXXXXXXXXXXXX OoOo++o",
"o++oOoO .............. X .............. X .............. OoOo++o",
"o++oOoOO ............ XXX ............ XXX ............ OOoOo++o",
"o++oOoOO X.X......X.X XXX X.X......X.X XXX X.X......X.X OOoOo++o",
"o++oOoOO X.XXXXXXXX.X XXX X.XXXXXXXX.X XXX X.XXXXXXXX.X OOoOo++o",
"o++oOoOO X.XXXXXXXX.X XXX X.XXXXXXXX.X XXX X.XXXXXXXX.X OOoOo++o",
"o++oOoOO X.XXXXXXXX.X XXX X.XXXXXXXX.X XXX X.XXXXXXXX.X OOoOo++o",
"o++oOoOO X.XXXXXXXX.X XXX X.XXXXXXXX.X XXX X.XXXXXXXX.X OOoOo++o",
"o++oOoOO X.XXXXXXXX.X +++ X.XXXXXXXX.X +++ X.XXXXXXXX.X OOoOo++o",
"o++oOoOO X.XXXXXXXX.X XXX X.XXXXXXXX.X XXX X.XXXXXXXX.X OOoOo++o",
"o++oOoO .X.XXXXXXXX.X. X .X.XXXXXXXX.X. X .X.XXXXXXXX.X. OoOo++o",
"o++oOoO .X.XXXXXXXX.X. + .X.XXXXXXXX.X. + .X.XXXXXXXX.X. OoOo++o",
"o++oOoO .X.XXXXXXXX.X. o .X.XXXXXXXX.X. o .X.XXXXXXXX.X. OoOo++o",
"o++oOoo .X.XXXXXXXX.X. o .X.XXXXXXXX.X. o .X.XXXXXXXX.X. ooOo++o",
"o++oOoO +X.XXXXXXXX.X+ O +X.XXXXXXXX.X+ O +X.XXXXXXXX.X+ OoOo++o",
"o++oOoO ++.XXXXXXXX.++ O ++.XXXXXXXX.++ O ++.XXXXXXXX.++ OoOo++o",
"o++oOoo +++XXXXXXXX+++ O +++XXXXXXXX+++ O +++XXXXXXXX+++ ooOo++o",
"o++oOoO ++++++++++++++ O ++++++++++++++ O ++++++++++++++ OoOo++o",
"o++oOoO XXXXXXXXXXXXXX O XXXXXXXXXXXXXX O XXXXXXXXXXXXXX OoOo++o",
"o++oOoO XXXXXXXXXXXXXX O XXXXXXXXXXXXXX O XXXXXXXXXXXXXX OoOo++o",
"o++OoooOOOOoOOoOOOOOOOOOOOOOOOOOOOOOOOOOOOOOOOOOOoOOoOOOOoooO++o",
"o+O+++ooOOOoOOoOOOOOOOOOOOOOOOOOOOOOOOOOOOOOOOOOOoOOoOOOoo+++O+o",
"oO+++++oooooooooooooooooooooooooooooooooooooooooooooooooo+++++Oo",
"o++++++oOOOOOOOOOOOOOOOOOOOOOOOOOOOOOOOOOOOOOOOOOOOOOOOOo++++++o",
"o++++++OooooooooooooooooooooooooooooooooooooooooooooooooO++++++o",
"o+++++O++++++++++++++++++++++++++++++++++++++++++++++++++O+++++o",
"o++++O++++++++++++++++++++++++++++++++++++++++++++++++++++O++++o",
"oooooooooooooooooooooooooooooooooooooooooooooooooooooooooooooooo"
};
